ISO-10303-21;
HEADER;
/* Generated by software containing ST-Developer
 * from STEP Tools, Inc. (www.steptools.com) 
 */

FILE_DESCRIPTION(
/* description */ (''),
/* implementation_level */ '2;1');

FILE_NAME(
/* name */ 'Iris triangle.step',
/* time_stamp */ '2026-10-04T16:45:21+02:00',
/* author */ (''),
/* organization */ (''),
/* preprocessor_version */ 'ST-DEVELOPER v20.2',
/* originating_system */ 'Autodesk Translation Framework v15.15.0.0',
/* authorisation */ '');

FILE_SCHEMA (('AUTOMOTIVE_DESIGN { 1 0 10303 214 3 1 1 }'));
ENDSEC;

DATA;
#10=MECHANICAL_DESIGN_GEOMETRIC_PRESENTATION_REPRESENTATION('',(#13),#575);
#11=SHAPE_REPRESENTATION_RELATIONSHIP('SRR','None',#582,#12);
#12=ADVANCED_BREP_SHAPE_REPRESENTATION('',(#14),#574);
#13=STYLED_ITEM('',(#591),#14);
#14=MANIFOLD_SOLID_BREP('Body3',#333);
#15=CYLINDRICAL_SURFACE('',#352,1.75);
#16=CYLINDRICAL_SURFACE('',#360,4.5730954994654);
#17=CYLINDRICAL_SURFACE('',#370,1.75);
#18=CYLINDRICAL_SURFACE('',#373,1.75);
#19=CYLINDRICAL_SURFACE('',#377,1.75);
#20=FACE_OUTER_BOUND('',#38,.T.);
#21=FACE_OUTER_BOUND('',#39,.T.);
#22=FACE_OUTER_BOUND('',#40,.T.);
#23=FACE_OUTER_BOUND('',#41,.T.);
#24=FACE_OUTER_BOUND('',#42,.T.);
#25=FACE_OUTER_BOUND('',#43,.T.);
#26=FACE_OUTER_BOUND('',#44,.T.);
#27=FACE_OUTER_BOUND('',#45,.T.);
#28=FACE_OUTER_BOUND('',#46,.T.);
#29=FACE_OUTER_BOUND('',#47,.T.);
#30=FACE_OUTER_BOUND('',#48,.T.);
#31=FACE_OUTER_BOUND('',#49,.T.);
#32=FACE_OUTER_BOUND('',#50,.T.);
#33=FACE_OUTER_BOUND('',#51,.T.);
#34=FACE_OUTER_BOUND('',#52,.T.);
#35=FACE_OUTER_BOUND('',#53,.T.);
#36=FACE_OUTER_BOUND('',#54,.T.);
#37=FACE_OUTER_BOUND('',#55,.T.);
#38=EDGE_LOOP('',(#210,#211,#212,#213,#214,#215));
#39=EDGE_LOOP('',(#216,#217,#218,#219));
#40=EDGE_LOOP('',(#220,#221,#222,#223,#224));
#41=EDGE_LOOP('',(#225,#226,#227,#228));
#42=EDGE_LOOP('',(#229,#230,#231,#232,#233,#234,#235,#236,#237));
#43=EDGE_LOOP('',(#238,#239,#240,#241));
#44=EDGE_LOOP('',(#242));
#45=EDGE_LOOP('',(#243,#244,#245,#246,#247,#248,#249,#250));
#46=EDGE_LOOP('',(#251,#252,#253,#254));
#47=EDGE_LOOP('',(#255,#256,#257,#258));
#48=EDGE_LOOP('',(#259,#260,#261,#262,#263,#264,#265,#266,#267,#268));
#49=EDGE_LOOP('',(#269,#270,#271,#272,#273,#274));
#50=EDGE_LOOP('',(#275,#276,#277,#278));
#51=EDGE_LOOP('',(#279,#280,#281,#282,#283,#284));
#52=EDGE_LOOP('',(#285,#286,#287,#288));
#53=EDGE_LOOP('',(#289,#290,#291,#292));
#54=EDGE_LOOP('',(#293,#294,#295,#296,#297));
#55=EDGE_LOOP('',(#298,#299,#300,#301));
#56=CIRCLE('',#348,1.75);
#57=CIRCLE('',#349,1.75);
#58=CIRCLE('',#350,1.75);
#59=CIRCLE('',#353,1.75);
#60=CIRCLE('',#354,1.75);
#61=CIRCLE('',#357,4.5730954994654);
#62=CIRCLE('',#358,1.75);
#63=CIRCLE('',#359,1.75);
#64=CIRCLE('',#361,4.5730954994654);
#65=CIRCLE('',#363,1.75);
#66=CIRCLE('',#365,1.75);
#67=CIRCLE('',#366,1.75);
#68=CIRCLE('',#371,1.75);
#69=CIRCLE('',#374,1.75);
#70=LINE('',#481,#102);
#71=LINE('',#485,#103);
#72=LINE('',#489,#104);
#73=LINE('',#493,#105);
#74=LINE('',#495,#106);
#75=LINE('',#496,#107);
#76=LINE('',#499,#108);
#77=LINE('',#505,#109);
#78=LINE('',#506,#110);
#79=LINE('',#512,#111);
#80=LINE('',#516,#112);
#81=LINE('',#520,#113);
#82=LINE('',#522,#114);
#83=LINE('',#524,#115);
#84=LINE('',#525,#116);
#85=LINE('',#528,#117);
#86=LINE('',#531,#118);
#87=LINE('',#537,#119);
#88=LINE('',#539,#120);
#89=LINE('',#541,#121);
#90=LINE('',#543,#122);
#91=LINE('',#547,#123);
#92=LINE('',#549,#124);
#93=LINE('',#550,#125);
#94=LINE('',#554,#126);
#95=LINE('',#555,#127);
#96=LINE('',#557,#128);
#97=LINE('',#558,#129);
#98=LINE('',#559,#130);
#99=LINE('',#561,#131);
#100=LINE('',#564,#132);
#101=LINE('',#570,#133);
#102=VECTOR('',#383,10.);
#103=VECTOR('',#386,10.);
#104=VECTOR('',#389,10.);
#105=VECTOR('',#394,10.);
#106=VECTOR('',#395,10.);
#107=VECTOR('',#396,10.);
#108=VECTOR('',#399,10.);
#109=VECTOR('',#406,10.);
#110=VECTOR('',#407,10.);
#111=VECTOR('',#412,10.);
#112=VECTOR('',#415,10.);
#113=VECTOR('',#418,10.);
#114=VECTOR('',#419,10.);
#115=VECTOR('',#420,10.);
#116=VECTOR('',#421,10.);
#117=VECTOR('',#424,10.);
#118=VECTOR('',#427,10.);
#119=VECTOR('',#434,10.);
#120=VECTOR('',#435,10.);
#121=VECTOR('',#436,10.);
#122=VECTOR('',#437,10.);
#123=VECTOR('',#442,10.);
#124=VECTOR('',#445,10.);
#125=VECTOR('',#446,10.);
#126=VECTOR('',#451,10.);
#127=VECTOR('',#452,10.);
#128=VECTOR('',#453,10.);
#129=VECTOR('',#454,10.);
#130=VECTOR('',#455,10.);
#131=VECTOR('',#458,10.);
#132=VECTOR('',#463,10.);
#133=VECTOR('',#474,1.75);
#134=VERTEX_POINT('',#479);
#135=VERTEX_POINT('',#480);
#136=VERTEX_POINT('',#482);
#137=VERTEX_POINT('',#484);
#138=VERTEX_POINT('',#486);
#139=VERTEX_POINT('',#488);
#140=VERTEX_POINT('',#492);
#141=VERTEX_POINT('',#494);
#142=VERTEX_POINT('',#498);
#143=VERTEX_POINT('',#500);
#144=VERTEX_POINT('',#504);
#145=VERTEX_POINT('',#508);
#146=VERTEX_POINT('',#509);
#147=VERTEX_POINT('',#511);
#148=VERTEX_POINT('',#513);
#149=VERTEX_POINT('',#515);
#150=VERTEX_POINT('',#517);
#151=VERTEX_POINT('',#519);
#152=VERTEX_POINT('',#521);
#153=VERTEX_POINT('',#523);
#154=VERTEX_POINT('',#527);
#155=VERTEX_POINT('',#529);
#156=VERTEX_POINT('',#533);
#157=VERTEX_POINT('',#536);
#158=VERTEX_POINT('',#538);
#159=VERTEX_POINT('',#540);
#160=VERTEX_POINT('',#542);
#161=VERTEX_POINT('',#544);
#162=VERTEX_POINT('',#553);
#163=VERTEX_POINT('',#556);
#164=EDGE_CURVE('',#134,#135,#70,.T.);
#165=EDGE_CURVE('',#136,#134,#56,.T.);
#166=EDGE_CURVE('',#137,#136,#71,.T.);
#167=EDGE_CURVE('',#138,#137,#57,.T.);
#168=EDGE_CURVE('',#139,#138,#72,.T.);
#169=EDGE_CURVE('',#135,#139,#58,.T.);
#170=EDGE_CURVE('',#140,#138,#73,.T.);
#171=EDGE_CURVE('',#141,#140,#74,.T.);
#172=EDGE_CURVE('',#141,#139,#75,.T.);
#173=EDGE_CURVE('',#137,#142,#76,.T.);
#174=EDGE_CURVE('',#143,#142,#59,.T.);
#175=EDGE_CURVE('',#140,#143,#60,.T.);
#176=EDGE_CURVE('',#144,#136,#77,.T.);
#177=EDGE_CURVE('',#142,#144,#78,.T.);
#178=EDGE_CURVE('',#145,#146,#61,.T.);
#179=EDGE_CURVE('',#147,#145,#79,.T.);
#180=EDGE_CURVE('',#148,#147,#62,.T.);
#181=EDGE_CURVE('',#149,#148,#80,.T.);
#182=EDGE_CURVE('',#150,#149,#63,.T.);
#183=EDGE_CURVE('',#151,#150,#81,.T.);
#184=EDGE_CURVE('',#152,#151,#82,.T.);
#185=EDGE_CURVE('',#153,#152,#83,.T.);
#186=EDGE_CURVE('',#146,#153,#84,.T.);
#187=EDGE_CURVE('',#154,#146,#85,.T.);
#188=EDGE_CURVE('',#154,#155,#64,.T.);
#189=EDGE_CURVE('',#145,#155,#86,.T.);
#190=EDGE_CURVE('',#156,#156,#65,.T.);
#191=EDGE_CURVE('',#157,#154,#87,.T.);
#192=EDGE_CURVE('',#158,#157,#88,.T.);
#193=EDGE_CURVE('',#159,#158,#89,.T.);
#194=EDGE_CURVE('',#160,#159,#90,.T.);
#195=EDGE_CURVE('',#161,#160,#66,.T.);
#196=EDGE_CURVE('',#160,#161,#67,.T.);
#197=EDGE_CURVE('',#155,#160,#91,.T.);
#198=EDGE_CURVE('',#158,#152,#92,.T.);
#199=EDGE_CURVE('',#157,#153,#93,.T.);
#200=EDGE_CURVE('',#150,#162,#94,.T.);
#201=EDGE_CURVE('',#143,#162,#95,.T.);
#202=EDGE_CURVE('',#163,#143,#96,.T.);
#203=EDGE_CURVE('',#147,#163,#97,.T.);
#204=EDGE_CURVE('',#159,#151,#98,.T.);
#205=EDGE_CURVE('',#134,#148,#99,.T.);
#206=EDGE_CURVE('',#144,#163,#68,.T.);
#207=EDGE_CURVE('',#135,#149,#100,.T.);
#208=EDGE_CURVE('',#162,#141,#69,.T.);
#209=EDGE_CURVE('',#156,#161,#101,.T.);
#210=ORIENTED_EDGE('',*,*,#164,.F.);
#211=ORIENTED_EDGE('',*,*,#165,.F.);
#212=ORIENTED_EDGE('',*,*,#166,.F.);
#213=ORIENTED_EDGE('',*,*,#167,.F.);
#214=ORIENTED_EDGE('',*,*,#168,.F.);
#215=ORIENTED_EDGE('',*,*,#169,.F.);
#216=ORIENTED_EDGE('',*,*,#168,.T.);
#217=ORIENTED_EDGE('',*,*,#170,.F.);
#218=ORIENTED_EDGE('',*,*,#171,.F.);
#219=ORIENTED_EDGE('',*,*,#172,.T.);
#220=ORIENTED_EDGE('',*,*,#167,.T.);
#221=ORIENTED_EDGE('',*,*,#173,.T.);
#222=ORIENTED_EDGE('',*,*,#174,.F.);
#223=ORIENTED_EDGE('',*,*,#175,.F.);
#224=ORIENTED_EDGE('',*,*,#170,.T.);
#225=ORIENTED_EDGE('',*,*,#166,.T.);
#226=ORIENTED_EDGE('',*,*,#176,.F.);
#227=ORIENTED_EDGE('',*,*,#177,.F.);
#228=ORIENTED_EDGE('',*,*,#173,.F.);
#229=ORIENTED_EDGE('',*,*,#178,.F.);
#230=ORIENTED_EDGE('',*,*,#179,.F.);
#231=ORIENTED_EDGE('',*,*,#180,.F.);
#232=ORIENTED_EDGE('',*,*,#181,.F.);
#233=ORIENTED_EDGE('',*,*,#182,.F.);
#234=ORIENTED_EDGE('',*,*,#183,.F.);
#235=ORIENTED_EDGE('',*,*,#184,.F.);
#236=ORIENTED_EDGE('',*,*,#185,.F.);
#237=ORIENTED_EDGE('',*,*,#186,.F.);
#238=ORIENTED_EDGE('',*,*,#178,.T.);
#239=ORIENTED_EDGE('',*,*,#187,.F.);
#240=ORIENTED_EDGE('',*,*,#188,.T.);
#241=ORIENTED_EDGE('',*,*,#189,.F.);
#242=ORIENTED_EDGE('',*,*,#190,.F.);
#243=ORIENTED_EDGE('',*,*,#188,.F.);
#244=ORIENTED_EDGE('',*,*,#191,.F.);
#245=ORIENTED_EDGE('',*,*,#192,.F.);
#246=ORIENTED_EDGE('',*,*,#193,.F.);
#247=ORIENTED_EDGE('',*,*,#194,.F.);
#248=ORIENTED_EDGE('',*,*,#195,.F.);
#249=ORIENTED_EDGE('',*,*,#196,.F.);
#250=ORIENTED_EDGE('',*,*,#197,.F.);
#251=ORIENTED_EDGE('',*,*,#185,.T.);
#252=ORIENTED_EDGE('',*,*,#198,.F.);
#253=ORIENTED_EDGE('',*,*,#192,.T.);
#254=ORIENTED_EDGE('',*,*,#199,.T.);
#255=ORIENTED_EDGE('',*,*,#186,.T.);
#256=ORIENTED_EDGE('',*,*,#199,.F.);
#257=ORIENTED_EDGE('',*,*,#191,.T.);
#258=ORIENTED_EDGE('',*,*,#187,.T.);
#259=ORIENTED_EDGE('',*,*,#200,.T.);
#260=ORIENTED_EDGE('',*,*,#201,.F.);
#261=ORIENTED_EDGE('',*,*,#202,.F.);
#262=ORIENTED_EDGE('',*,*,#203,.F.);
#263=ORIENTED_EDGE('',*,*,#179,.T.);
#264=ORIENTED_EDGE('',*,*,#189,.T.);
#265=ORIENTED_EDGE('',*,*,#197,.T.);
#266=ORIENTED_EDGE('',*,*,#194,.T.);
#267=ORIENTED_EDGE('',*,*,#204,.T.);
#268=ORIENTED_EDGE('',*,*,#183,.T.);
#269=ORIENTED_EDGE('',*,*,#165,.T.);
#270=ORIENTED_EDGE('',*,*,#205,.T.);
#271=ORIENTED_EDGE('',*,*,#180,.T.);
#272=ORIENTED_EDGE('',*,*,#203,.T.);
#273=ORIENTED_EDGE('',*,*,#206,.F.);
#274=ORIENTED_EDGE('',*,*,#176,.T.);
#275=ORIENTED_EDGE('',*,*,#164,.T.);
#276=ORIENTED_EDGE('',*,*,#207,.T.);
#277=ORIENTED_EDGE('',*,*,#181,.T.);
#278=ORIENTED_EDGE('',*,*,#205,.F.);
#279=ORIENTED_EDGE('',*,*,#169,.T.);
#280=ORIENTED_EDGE('',*,*,#172,.F.);
#281=ORIENTED_EDGE('',*,*,#208,.F.);
#282=ORIENTED_EDGE('',*,*,#200,.F.);
#283=ORIENTED_EDGE('',*,*,#182,.T.);
#284=ORIENTED_EDGE('',*,*,#207,.F.);
#285=ORIENTED_EDGE('',*,*,#206,.T.);
#286=ORIENTED_EDGE('',*,*,#202,.T.);
#287=ORIENTED_EDGE('',*,*,#174,.T.);
#288=ORIENTED_EDGE('',*,*,#177,.T.);
#289=ORIENTED_EDGE('',*,*,#208,.T.);
#290=ORIENTED_EDGE('',*,*,#171,.T.);
#291=ORIENTED_EDGE('',*,*,#175,.T.);
#292=ORIENTED_EDGE('',*,*,#201,.T.);
#293=ORIENTED_EDGE('',*,*,#190,.T.);
#294=ORIENTED_EDGE('',*,*,#209,.T.);
#295=ORIENTED_EDGE('',*,*,#195,.T.);
#296=ORIENTED_EDGE('',*,*,#196,.T.);
#297=ORIENTED_EDGE('',*,*,#209,.F.);
#298=ORIENTED_EDGE('',*,*,#184,.T.);
#299=ORIENTED_EDGE('',*,*,#204,.F.);
#300=ORIENTED_EDGE('',*,*,#193,.T.);
#301=ORIENTED_EDGE('',*,*,#198,.T.);
#302=PLANE('',#347);
#303=PLANE('',#351);
#304=PLANE('',#355);
#305=PLANE('',#356);
#306=PLANE('',#362);
#307=PLANE('',#364);
#308=PLANE('',#367);
#309=PLANE('',#368);
#310=PLANE('',#369);
#311=PLANE('',#372);
#312=PLANE('',#375);
#313=PLANE('',#376);
#314=PLANE('',#378);
#315=ADVANCED_FACE('',(#20),#302,.T.);
#316=ADVANCED_FACE('',(#21),#303,.T.);
#317=ADVANCED_FACE('',(#22),#15,.T.);
#318=ADVANCED_FACE('',(#23),#304,.T.);
#319=ADVANCED_FACE('',(#24),#305,.T.);
#320=ADVANCED_FACE('',(#25),#16,.T.);
#321=ADVANCED_FACE('',(#26),#306,.F.);
#322=ADVANCED_FACE('',(#27),#307,.F.);
#323=ADVANCED_FACE('',(#28),#308,.T.);
#324=ADVANCED_FACE('',(#29),#309,.T.);
#325=ADVANCED_FACE('',(#30),#310,.T.);
#326=ADVANCED_FACE('',(#31),#17,.T.);
#327=ADVANCED_FACE('',(#32),#311,.T.);
#328=ADVANCED_FACE('',(#33),#18,.T.);
#329=ADVANCED_FACE('',(#34),#312,.T.);
#330=ADVANCED_FACE('',(#35),#313,.T.);
#331=ADVANCED_FACE('',(#36),#19,.T.);
#332=ADVANCED_FACE('',(#37),#314,.T.);
#333=CLOSED_SHELL('',(#315,#316,#317,#318,#319,#320,#321,#322,#323,#324,
#325,#326,#327,#328,#329,#330,#331,#332));
#334=DERIVED_UNIT_ELEMENT(#336,1.);
#335=DERIVED_UNIT_ELEMENT(#577,-3.);
#336=(
MASS_UNIT()
NAMED_UNIT(*)
SI_UNIT(.KILO.,.GRAM.)
);
#337=DERIVED_UNIT((#334,#335));
#338=MEASURE_REPRESENTATION_ITEM('density measure',
POSITIVE_RATIO_MEASURE(7850.),#337);
#339=PROPERTY_DEFINITION_REPRESENTATION(#344,#341);
#340=PROPERTY_DEFINITION_REPRESENTATION(#345,#342);
#341=REPRESENTATION('material name',(#343),#574);
#342=REPRESENTATION('density',(#338),#574);
#343=DESCRIPTIVE_REPRESENTATION_ITEM('Steel','Steel');
#344=PROPERTY_DEFINITION('material property','material name',#584);
#345=PROPERTY_DEFINITION('material property','density of part',#584);
#346=AXIS2_PLACEMENT_3D('',#477,#379,#380);
#347=AXIS2_PLACEMENT_3D('',#478,#381,#382);
#348=AXIS2_PLACEMENT_3D('',#483,#384,#385);
#349=AXIS2_PLACEMENT_3D('',#487,#387,#388);
#350=AXIS2_PLACEMENT_3D('',#490,#390,#391);
#351=AXIS2_PLACEMENT_3D('',#491,#392,#393);
#352=AXIS2_PLACEMENT_3D('',#497,#397,#398);
#353=AXIS2_PLACEMENT_3D('',#501,#400,#401);
#354=AXIS2_PLACEMENT_3D('',#502,#402,#403);
#355=AXIS2_PLACEMENT_3D('',#503,#404,#405);
#356=AXIS2_PLACEMENT_3D('',#507,#408,#409);
#357=AXIS2_PLACEMENT_3D('',#510,#410,#411);
#358=AXIS2_PLACEMENT_3D('',#514,#413,#414);
#359=AXIS2_PLACEMENT_3D('',#518,#416,#417);
#360=AXIS2_PLACEMENT_3D('',#526,#422,#423);
#361=AXIS2_PLACEMENT_3D('',#530,#425,#426);
#362=AXIS2_PLACEMENT_3D('',#532,#428,#429);
#363=AXIS2_PLACEMENT_3D('',#534,#430,#431);
#364=AXIS2_PLACEMENT_3D('',#535,#432,#433);
#365=AXIS2_PLACEMENT_3D('',#545,#438,#439);
#366=AXIS2_PLACEMENT_3D('',#546,#440,#441);
#367=AXIS2_PLACEMENT_3D('',#548,#443,#444);
#368=AXIS2_PLACEMENT_3D('',#551,#447,#448);
#369=AXIS2_PLACEMENT_3D('',#552,#449,#450);
#370=AXIS2_PLACEMENT_3D('',#560,#456,#457);
#371=AXIS2_PLACEMENT_3D('',#562,#459,#460);
#372=AXIS2_PLACEMENT_3D('',#563,#461,#462);
#373=AXIS2_PLACEMENT_3D('',#565,#464,#465);
#374=AXIS2_PLACEMENT_3D('',#566,#466,#467);
#375=AXIS2_PLACEMENT_3D('',#567,#468,#469);
#376=AXIS2_PLACEMENT_3D('',#568,#470,#471);
#377=AXIS2_PLACEMENT_3D('',#569,#472,#473);
#378=AXIS2_PLACEMENT_3D('',#571,#475,#476);
#379=DIRECTION('axis',(0.,0.,1.));
#380=DIRECTION('refdir',(1.,0.,0.));
#381=DIRECTION('center_axis',(0.,0.,1.));
#382=DIRECTION('ref_axis',(-1.,0.,0.));
#383=DIRECTION('',(-1.,7.40148683083438E-16,0.));
#384=DIRECTION('center_axis',(0.,0.,-1.));
#385=DIRECTION('ref_axis',(-0.00331819396626853,-0.999994494779248,0.));
#386=DIRECTION('',(1.,-1.48029736616688E-15,0.));
#387=DIRECTION('center_axis',(0.,0.,-1.));
#388=DIRECTION('ref_axis',(-1.,0.,0.));
#389=DIRECTION('',(1.,-1.48029736616688E-15,0.));
#390=DIRECTION('center_axis',(0.,0.,-1.));
#391=DIRECTION('ref_axis',(0.00331819396603507,0.999994494779248,0.));
#392=DIRECTION('center_axis',(1.48029736616688E-15,1.,0.));
#393=DIRECTION('ref_axis',(-1.,1.48029736616688E-15,0.));
#394=DIRECTION('',(0.,0.,1.));
#395=DIRECTION('',(1.,-1.48029736616688E-15,0.));
#396=DIRECTION('',(0.,0.,1.));
#397=DIRECTION('center_axis',(0.,0.,1.));
#398=DIRECTION('ref_axis',(-1.,0.,0.));
#399=DIRECTION('',(0.,0.,-1.));
#400=DIRECTION('center_axis',(0.,0.,-1.));
#401=DIRECTION('ref_axis',(-1.,0.,0.));
#402=DIRECTION('center_axis',(0.,0.,-1.));
#403=DIRECTION('ref_axis',(-1.,0.,0.));
#404=DIRECTION('center_axis',(1.48029736616688E-15,1.,0.));
#405=DIRECTION('ref_axis',(-1.,1.48029736616688E-15,0.));
#406=DIRECTION('',(0.,0.,1.));
#407=DIRECTION('',(1.,-1.48029736616688E-15,0.));
#408=DIRECTION('center_axis',(0.,0.,1.));
#409=DIRECTION('ref_axis',(-1.,0.,0.));
#410=DIRECTION('center_axis',(0.,0.,-1.));
#411=DIRECTION('ref_axis',(0.866025403784439,-0.499999999999999,0.));
#412=DIRECTION('',(1.,-3.84592537276713E-16,0.));
#413=DIRECTION('center_axis',(0.,0.,1.));
#414=DIRECTION('ref_axis',(-0.00331819396626853,-0.999994494779248,0.));
#415=DIRECTION('',(1.,-7.40148683083438E-16,0.));
#416=DIRECTION('center_axis',(0.,0.,1.));
#417=DIRECTION('ref_axis',(0.00331819396603507,0.999994494779248,0.));
#418=DIRECTION('',(1.,-3.84592537276713E-16,0.));
#419=DIRECTION('',(0.,1.,0.));
#420=DIRECTION('',(-0.5,0.866025403784439,0.));
#421=DIRECTION('',(-0.5,-0.866025403784439,0.));
#422=DIRECTION('center_axis',(0.,0.,-1.));
#423=DIRECTION('ref_axis',(0.866025403784439,-0.499999999999999,0.));
#424=DIRECTION('',(0.,0.,1.));
#425=DIRECTION('center_axis',(0.,0.,1.));
#426=DIRECTION('ref_axis',(0.866025403784439,-0.499999999999999,0.));
#427=DIRECTION('',(0.,0.,-1.));
#428=DIRECTION('center_axis',(0.,0.,1.));
#429=DIRECTION('ref_axis',(-1.,0.,0.));
#430=DIRECTION('center_axis',(0.,0.,1.));
#431=DIRECTION('ref_axis',(-1.,0.,0.));
#432=DIRECTION('center_axis',(0.,0.,1.));
#433=DIRECTION('ref_axis',(-1.,0.,0.));
#434=DIRECTION('',(0.5,0.866025403784439,0.));
#435=DIRECTION('',(0.5,-0.866025403784439,0.));
#436=DIRECTION('',(0.,-1.,0.));
#437=DIRECTION('',(-1.,3.84592537276713E-16,0.));
#438=DIRECTION('center_axis',(0.,0.,-1.));
#439=DIRECTION('ref_axis',(-1.,0.,0.));
#440=DIRECTION('center_axis',(0.,0.,-1.));
#441=DIRECTION('ref_axis',(-1.,0.,0.));
#442=DIRECTION('',(-1.,3.84592537276713E-16,0.));
#443=DIRECTION('center_axis',(-0.866025403784439,-0.5,0.));
#444=DIRECTION('ref_axis',(0.5,-0.866025403784439,0.));
#445=DIRECTION('',(0.,0.,1.));
#446=DIRECTION('',(0.,0.,1.));
#447=DIRECTION('center_axis',(0.866025403784439,-0.5,0.));
#448=DIRECTION('ref_axis',(0.5,0.866025403784439,0.));
#449=DIRECTION('center_axis',(3.84592537276713E-16,1.,0.));
#450=DIRECTION('ref_axis',(-1.,3.84592537276713E-16,0.));
#451=DIRECTION('',(0.,0.,1.));
#452=DIRECTION('',(-1.,3.84592537276713E-16,0.));
#453=DIRECTION('',(-1.,3.84592537276713E-16,0.));
#454=DIRECTION('',(0.,0.,1.));
#455=DIRECTION('',(0.,0.,1.));
#456=DIRECTION('center_axis',(0.,0.,1.));
#457=DIRECTION('ref_axis',(1.,-9.47964425211469E-15,0.));
#458=DIRECTION('',(0.,0.,-1.));
#459=DIRECTION('center_axis',(0.,0.,-1.));
#460=DIRECTION('ref_axis',(-0.00331819396626853,-0.999994494779248,0.));
#461=DIRECTION('center_axis',(-7.40148683083438E-16,-1.,0.));
#462=DIRECTION('ref_axis',(1.,-7.40148683083438E-16,0.));
#463=DIRECTION('',(0.,0.,-1.));
#464=DIRECTION('center_axis',(0.,0.,1.));
#465=DIRECTION('ref_axis',(-1.,2.02786076621196E-13,0.));
#466=DIRECTION('center_axis',(0.,0.,-1.));
#467=DIRECTION('ref_axis',(0.00331819396603507,0.999994494779248,0.));
#468=DIRECTION('center_axis',(0.,0.,1.));
#469=DIRECTION('ref_axis',(-1.,0.,0.));
#470=DIRECTION('center_axis',(0.,0.,1.));
#471=DIRECTION('ref_axis',(-1.,0.,0.));
#472=DIRECTION('center_axis',(0.,0.,-1.));
#473=DIRECTION('ref_axis',(-1.,0.,0.));
#474=DIRECTION('',(0.,0.,1.));
#475=DIRECTION('center_axis',(-1.,0.,0.));
#476=DIRECTION('ref_axis',(0.,-1.,0.));
#477=CARTESIAN_POINT('',(0.,0.,0.));
#478=CARTESIAN_POINT('Origin',(0.,15.,14.3));
#479=CARTESIAN_POINT('',(1.50153828894117,13.2500038536579,14.3));
#480=CARTESIAN_POINT('',(-1.48684803197808,13.2500038536579,14.3));
#481=CARTESIAN_POINT('',(-0.743424015989043,13.2500038536579,14.3));
#482=CARTESIAN_POINT('',(1.5015382889412,16.7499845853853,14.3));
#483=CARTESIAN_POINT('Origin',(1.50734512838214,14.9999942195216,14.3));
#484=CARTESIAN_POINT('',(0.00734512858206804,16.7499845853853,14.3));
#485=CARTESIAN_POINT('',(0.750769144470603,16.7499845853853,14.3));
#486=CARTESIAN_POINT('',(-0.00734512858206277,16.7499845853853,14.3));
#487=CARTESIAN_POINT('Origin',(-3.15852510879507E-31,15.,14.3));
#488=CARTESIAN_POINT('',(-1.48684803197738,16.7499845853853,14.3));
#489=CARTESIAN_POINT('',(0.750769144470603,16.7499845853853,14.3));
#490=CARTESIAN_POINT('Origin',(-1.49265487141794,14.9999942195216,14.3));
#491=CARTESIAN_POINT('Origin',(1.5015382889412,16.7499845853853,10.5));
#492=CARTESIAN_POINT('',(-0.00734512858206282,16.7499845853853,10.5));
#493=CARTESIAN_POINT('',(-0.00734512858234618,16.7499845853853,3.5));
#494=CARTESIAN_POINT('',(-1.48684803197738,16.7499845853853,10.5));
#495=CARTESIAN_POINT('',(0.750769144470608,16.7499845853853,10.5));
#496=CARTESIAN_POINT('',(-1.48684803197738,16.7499845853853,10.5));
#497=CARTESIAN_POINT('Origin',(-3.15852510879507E-31,15.,3.5));
#498=CARTESIAN_POINT('',(0.007345128582068,16.7499845853853,10.5));
#499=CARTESIAN_POINT('',(0.00734512858235145,16.7499845853853,3.5));
#500=CARTESIAN_POINT('',(1.77635683856437E-14,16.7500000001471,10.5));
#501=CARTESIAN_POINT('Origin',(-3.15852510879507E-31,15.,10.5));
#502=CARTESIAN_POINT('Origin',(-3.15852510879507E-31,15.,10.5));
#503=CARTESIAN_POINT('Origin',(1.5015382889412,16.7499845853853,10.5));
#504=CARTESIAN_POINT('',(1.5015382889412,16.7499845853853,10.5));
#505=CARTESIAN_POINT('',(1.5015382889412,16.7499845853853,10.5));
#506=CARTESIAN_POINT('',(0.750769144470608,16.7499845853853,10.5));
#507=CARTESIAN_POINT('Origin',(0.,8.37500645002517,10.3));
#508=CARTESIAN_POINT('',(5.08379958311326,16.75,10.3));
#509=CARTESIAN_POINT('',(6.2571833064967,10.8377593991241,10.3));
#510=CARTESIAN_POINT('Origin',(2.29676643002738,13.1243071488568,10.3));
#511=CARTESIAN_POINT('',(1.50734512838214,16.75,10.3));
#512=CARTESIAN_POINT('',(4.33012701892219,16.75,10.3));
#513=CARTESIAN_POINT('',(1.50153828894117,13.2500038536579,10.3));
#514=CARTESIAN_POINT('Origin',(1.50734512838214,14.9999942195216,10.3));
#515=CARTESIAN_POINT('',(-1.48684803197808,13.2500038536579,10.3));
#516=CARTESIAN_POINT('',(-0.74342401598904,13.2500038536579,10.3));
#517=CARTESIAN_POINT('',(-1.49265487141794,16.75,10.3));
#518=CARTESIAN_POINT('Origin',(-1.49265487141794,14.9999942195216,10.3));
#519=CARTESIAN_POINT('',(-8.66025403784438,16.75,10.3));
#520=CARTESIAN_POINT('',(4.33012701892219,16.75,10.3));
#521=CARTESIAN_POINT('',(-8.66025403784438,15.,10.3));
#522=CARTESIAN_POINT('',(-8.66025403784438,12.5625032250126,10.3));
#523=CARTESIAN_POINT('',(0.,0.,10.3));
#524=CARTESIAN_POINT('',(-6.14336910456727,10.6406274187594,10.3));
#525=CARTESIAN_POINT('',(1.81324208564508,3.14062741875944,10.3));
#526=CARTESIAN_POINT('Origin',(2.29676643002738,13.1243071488568,10.5));
#527=CARTESIAN_POINT('',(6.2571833064967,10.8377593991241,5.5));
#528=CARTESIAN_POINT('',(6.2571833064967,10.8377593991241,10.5));
#529=CARTESIAN_POINT('',(5.08379958311326,16.75,5.5));
#530=CARTESIAN_POINT('Origin',(2.29676643002738,13.1243071488568,5.5));
#531=CARTESIAN_POINT('',(5.08379958311327,16.75,10.5));
#532=CARTESIAN_POINT('Origin',(0.,15.,1.5));
#533=CARTESIAN_POINT('',(1.75,15.,1.5));
#534=CARTESIAN_POINT('Origin',(-3.15852510879507E-31,15.,1.5));
#535=CARTESIAN_POINT('Origin',(0.,8.37500645002517,5.5));
#536=CARTESIAN_POINT('',(0.,0.,5.5));
#537=CARTESIAN_POINT('',(1.81324208564508,3.14062741875944,5.5));
#538=CARTESIAN_POINT('',(-8.66025403784438,15.,5.5));
#539=CARTESIAN_POINT('',(-6.14336910456727,10.6406274187594,5.5));
#540=CARTESIAN_POINT('',(-8.66025403784438,16.75,5.5));
#541=CARTESIAN_POINT('',(-8.66025403784438,12.5625032250126,5.5));
#542=CARTESIAN_POINT('',(0.00159296639798797,16.7499985499748,5.5));
#543=CARTESIAN_POINT('',(4.33012701892219,16.75,5.5));
#544=CARTESIAN_POINT('',(1.75,15.,5.5));
#545=CARTESIAN_POINT('Origin',(-3.15852510879507E-31,15.,5.5));
#546=CARTESIAN_POINT('Origin',(-3.15852510879507E-31,15.,5.5));
#547=CARTESIAN_POINT('',(4.33012701892219,16.75,5.5));
#548=CARTESIAN_POINT('Origin',(-8.66025403784438,15.,3.5));
#549=CARTESIAN_POINT('',(-8.66025403784438,15.,3.5));
#550=CARTESIAN_POINT('',(0.,0.,3.5));
#551=CARTESIAN_POINT('Origin',(0.,0.,3.5));
#552=CARTESIAN_POINT('Origin',(8.66025403784438,16.75,3.5));
#553=CARTESIAN_POINT('',(-1.49265487141794,16.75,10.5));
#554=CARTESIAN_POINT('',(-1.49265487141794,16.75,10.5));
#555=CARTESIAN_POINT('',(8.66025403784438,16.75,10.5));
#556=CARTESIAN_POINT('',(1.50734512838214,16.75,10.5));
#557=CARTESIAN_POINT('',(8.66025403784438,16.75,10.5));
#558=CARTESIAN_POINT('',(1.50734512838214,16.75,10.5));
#559=CARTESIAN_POINT('',(-8.66025403784438,16.75,3.5));
#560=CARTESIAN_POINT('Origin',(1.50734512838214,14.9999942195216,10.5));
#561=CARTESIAN_POINT('',(1.50153828894117,13.2500038536579,10.5));
#562=CARTESIAN_POINT('Origin',(1.50734512838214,14.9999942195216,10.5));
#563=CARTESIAN_POINT('Origin',(-1.48684803197808,13.2500038536579,10.5));
#564=CARTESIAN_POINT('',(-1.48684803197808,13.2500038536579,10.5));
#565=CARTESIAN_POINT('Origin',(-1.49265487141794,14.9999942195216,10.5));
#566=CARTESIAN_POINT('Origin',(-1.49265487141794,14.9999942195216,10.5));
#567=CARTESIAN_POINT('Origin',(0.,8.37500645002517,10.5));
#568=CARTESIAN_POINT('Origin',(0.,8.37500645002517,10.5));
#569=CARTESIAN_POINT('Origin',(-3.15852510879507E-31,15.,3.5));
#570=CARTESIAN_POINT('',(1.75,15.,3.5));
#571=CARTESIAN_POINT('Origin',(-8.66025403784438,16.75,3.5));
#572=UNCERTAINTY_MEASURE_WITH_UNIT(LENGTH_MEASURE(0.01),#576,
'DISTANCE_ACCURACY_VALUE',
'Maximum model space distance between geometric entities at asserted c
onnectivities');
#573=UNCERTAINTY_MEASURE_WITH_UNIT(LENGTH_MEASURE(0.01),#576,
'DISTANCE_ACCURACY_VALUE',
'Maximum model space distance between geometric entities at asserted c
onnectivities');
#574=(
GEOMETRIC_REPRESENTATION_CONTEXT(3)
GLOBAL_UNCERTAINTY_ASSIGNED_CONTEXT((#572))
GLOBAL_UNIT_ASSIGNED_CONTEXT((#576,#578,#579))
REPRESENTATION_CONTEXT('','3D')
);
#575=(
GEOMETRIC_REPRESENTATION_CONTEXT(3)
GLOBAL_UNCERTAINTY_ASSIGNED_CONTEXT((#573))
GLOBAL_UNIT_ASSIGNED_CONTEXT((#576,#578,#579))
REPRESENTATION_CONTEXT('','3D')
);
#576=(
LENGTH_UNIT()
NAMED_UNIT(*)
SI_UNIT(.MILLI.,.METRE.)
);
#577=(
LENGTH_UNIT()
NAMED_UNIT(*)
SI_UNIT($,.METRE.)
);
#578=(
NAMED_UNIT(*)
PLANE_ANGLE_UNIT()
SI_UNIT($,.RADIAN.)
);
#579=(
NAMED_UNIT(*)
SI_UNIT($,.STERADIAN.)
SOLID_ANGLE_UNIT()
);
#580=SHAPE_DEFINITION_REPRESENTATION(#581,#582);
#581=PRODUCT_DEFINITION_SHAPE('',$,#584);
#582=SHAPE_REPRESENTATION('',(#346),#574);
#583=PRODUCT_DEFINITION_CONTEXT('part definition',#588,'design');
#584=PRODUCT_DEFINITION('Iris triangle','Iris triangle v3',#585,#583);
#585=PRODUCT_DEFINITION_FORMATION('',$,#590);
#586=PRODUCT_RELATED_PRODUCT_CATEGORY('Iris triangle v3',
'Iris triangle v3',(#590));
#587=APPLICATION_PROTOCOL_DEFINITION('international standard',
'automotive_design',2009,#588);
#588=APPLICATION_CONTEXT(
'Core Data for Automotive Mechanical Design Process');
#589=PRODUCT_CONTEXT('part definition',#588,'mechanical');
#590=PRODUCT('Iris triangle','Iris triangle v3',$,(#589));
#591=PRESENTATION_STYLE_ASSIGNMENT((#592));
#592=SURFACE_STYLE_USAGE(.BOTH.,#593);
#593=SURFACE_SIDE_STYLE('',(#594));
#594=SURFACE_STYLE_FILL_AREA(#595);
#595=FILL_AREA_STYLE('Steel - Satin',(#596));
#596=FILL_AREA_STYLE_COLOUR('Steel - Satin',#597);
#597=COLOUR_RGB('Steel - Satin',0.627450980392157,0.627450980392157,0.627450980392157);
ENDSEC;
END-ISO-10303-21;
