ISO-10303-21;
HEADER;
/* Generated by software containing ST-Developer
 * from STEP Tools, Inc. (www.steptools.com) 
 */

FILE_DESCRIPTION(
/* description */ (''),
/* implementation_level */ '2;1');

FILE_NAME(
/* name */ 'Setup.step',
/* time_stamp */ '2026-10-04T16:44:53+02:00',
/* author */ (''),
/* organization */ (''),
/* preprocessor_version */ 'ST-DEVELOPER v20.2',
/* originating_system */ 'Autodesk Translation Framework v15.15.0.0',
/* authorisation */ '');

FILE_SCHEMA (('AUTOMOTIVE_DESIGN { 1 0 10303 214 3 1 1 }'));
ENDSEC;

DATA;
#10=MECHANICAL_DESIGN_GEOMETRIC_PRESENTATION_REPRESENTATION('',(#74,#75,
#76,#77,#78,#79,#80,#81,#82),#2058);
#11=SHAPE_REPRESENTATION_RELATIONSHIP('SRR','None',#2065,#12);
#12=ADVANCED_BREP_SHAPE_REPRESENTATION('',(#83,#84,#85,#86,#87,#88,#89,
#90,#91),#2057);
#13=FACE_BOUND('',#200,.T.);
#14=FACE_BOUND('',#202,.T.);
#15=FACE_BOUND('',#210,.T.);
#16=FACE_BOUND('',#218,.T.);
#17=FACE_BOUND('',#241,.T.);
#18=FACE_BOUND('',#242,.T.);
#19=FACE_BOUND('',#244,.T.);
#20=FACE_BOUND('',#245,.T.);
#21=FACE_BOUND('',#249,.T.);
#22=FACE_BOUND('',#250,.T.);
#23=FACE_BOUND('',#254,.T.);
#24=FACE_BOUND('',#255,.T.);
#25=SPHERICAL_SURFACE('',#1271,25.);
#26=SPHERICAL_SURFACE('',#1340,25.);
#27=SPHERICAL_SURFACE('',#1345,25.);
#28=SPHERICAL_SURFACE('',#1347,25.);
#29=SPHERICAL_SURFACE('',#1355,25.);
#30=SPHERICAL_SURFACE('',#1361,25.);
#31=CIRCLE('',#1262,37.5);
#32=CIRCLE('',#1263,37.5);
#33=CIRCLE('',#1267,10.);
#34=CIRCLE('',#1269,9.99999999999998);
#35=CIRCLE('',#1270,9.99999999999998);
#36=CIRCLE('',#1272,25.);
#37=CIRCLE('',#1286,3.50000000000001);
#38=CIRCLE('',#1287,3.50000000000001);
#39=CIRCLE('',#1297,3.00000000000004);
#40=CIRCLE('',#1298,3.00000000000004);
#41=CIRCLE('',#1308,5.);
#42=CIRCLE('',#1309,5.);
#43=CIRCLE('',#1317,5.19432484621217);
#44=CIRCLE('',#1330,10.);
#45=CIRCLE('',#1334,5.19432484621213);
#46=CIRCLE('',#1335,5.19432484621213);
#47=CIRCLE('',#1337,9.99999999999999);
#48=CIRCLE('',#1338,10.);
#49=CIRCLE('',#1339,10.);
#50=CIRCLE('',#1341,25.);
#51=CIRCLE('',#1343,10.0000000000001);
#52=CIRCLE('',#1344,10.);
#53=CIRCLE('',#1346,25.);
#54=CIRCLE('',#1348,25.);
#55=CIRCLE('',#1349,9.99999999999996);
#56=CIRCLE('',#1351,9.99999999999993);
#57=CIRCLE('',#1353,10.);
#58=CIRCLE('',#1354,9.99999999999994);
#59=CIRCLE('',#1356,25.);
#60=CIRCLE('',#1358,10.);
#61=CIRCLE('',#1359,10.);
#62=CIRCLE('',#1362,25.);
#63=CYLINDRICAL_SURFACE('',#1261,37.5);
#64=CYLINDRICAL_SURFACE('',#1268,9.99999999999999);
#65=CYLINDRICAL_SURFACE('',#1285,3.50000000000001);
#66=CYLINDRICAL_SURFACE('',#1296,3.00000000000004);
#67=CYLINDRICAL_SURFACE('',#1307,5.);
#68=CYLINDRICAL_SURFACE('',#1333,5.19432484621217);
#69=CYLINDRICAL_SURFACE('',#1336,9.99999999999999);
#70=CYLINDRICAL_SURFACE('',#1342,10.0000000000001);
#71=CYLINDRICAL_SURFACE('',#1350,9.99999999999996);
#72=CYLINDRICAL_SURFACE('',#1352,9.99999999999996);
#73=CYLINDRICAL_SURFACE('',#1357,10.);
#74=STYLED_ITEM('',(#2075),#83);
#75=STYLED_ITEM('',(#2076),#84);
#76=STYLED_ITEM('',(#2075),#85);
#77=STYLED_ITEM('',(#2077),#86);
#78=STYLED_ITEM('',(#2077),#87);
#79=STYLED_ITEM('',(#2076),#88);
#80=STYLED_ITEM('',(#2076),#89);
#81=STYLED_ITEM('',(#2078),#90);
#82=STYLED_ITEM('',(#2075),#91);
#83=MANIFOLD_SOLID_BREP('Body1',#1233);
#84=MANIFOLD_SOLID_BREP('Body14',#1234);
#85=MANIFOLD_SOLID_BREP('Body16',#1235);
#86=MANIFOLD_SOLID_BREP('Body17',#1236);
#87=MANIFOLD_SOLID_BREP('Body18',#1237);
#88=MANIFOLD_SOLID_BREP('Body19',#1238);
#89=MANIFOLD_SOLID_BREP('Body20',#1239);
#90=MANIFOLD_SOLID_BREP('Body24',#1240);
#91=MANIFOLD_SOLID_BREP('Body25',#1241);
#92=FACE_OUTER_BOUND('',#168,.T.);
#93=FACE_OUTER_BOUND('',#169,.T.);
#94=FACE_OUTER_BOUND('',#170,.T.);
#95=FACE_OUTER_BOUND('',#171,.T.);
#96=FACE_OUTER_BOUND('',#172,.T.);
#97=FACE_OUTER_BOUND('',#173,.T.);
#98=FACE_OUTER_BOUND('',#174,.T.);
#99=FACE_OUTER_BOUND('',#175,.T.);
#100=FACE_OUTER_BOUND('',#176,.T.);
#101=FACE_OUTER_BOUND('',#177,.T.);
#102=FACE_OUTER_BOUND('',#178,.T.);
#103=FACE_OUTER_BOUND('',#179,.T.);
#104=FACE_OUTER_BOUND('',#180,.T.);
#105=FACE_OUTER_BOUND('',#181,.T.);
#106=FACE_OUTER_BOUND('',#182,.T.);
#107=FACE_OUTER_BOUND('',#183,.T.);
#108=FACE_OUTER_BOUND('',#184,.T.);
#109=FACE_OUTER_BOUND('',#185,.T.);
#110=FACE_OUTER_BOUND('',#186,.T.);
#111=FACE_OUTER_BOUND('',#187,.T.);
#112=FACE_OUTER_BOUND('',#188,.T.);
#113=FACE_OUTER_BOUND('',#189,.T.);
#114=FACE_OUTER_BOUND('',#190,.T.);
#115=FACE_OUTER_BOUND('',#191,.T.);
#116=FACE_OUTER_BOUND('',#192,.T.);
#117=FACE_OUTER_BOUND('',#193,.T.);
#118=FACE_OUTER_BOUND('',#194,.T.);
#119=FACE_OUTER_BOUND('',#195,.T.);
#120=FACE_OUTER_BOUND('',#196,.T.);
#121=FACE_OUTER_BOUND('',#197,.T.);
#122=FACE_OUTER_BOUND('',#198,.T.);
#123=FACE_OUTER_BOUND('',#199,.T.);
#124=FACE_OUTER_BOUND('',#201,.T.);
#125=FACE_OUTER_BOUND('',#203,.T.);
#126=FACE_OUTER_BOUND('',#204,.T.);
#127=FACE_OUTER_BOUND('',#205,.T.);
#128=FACE_OUTER_BOUND('',#206,.T.);
#129=FACE_OUTER_BOUND('',#207,.T.);
#130=FACE_OUTER_BOUND('',#208,.T.);
#131=FACE_OUTER_BOUND('',#209,.T.);
#132=FACE_OUTER_BOUND('',#211,.T.);
#133=FACE_OUTER_BOUND('',#212,.T.);
#134=FACE_OUTER_BOUND('',#213,.T.);
#135=FACE_OUTER_BOUND('',#214,.T.);
#136=FACE_OUTER_BOUND('',#215,.T.);
#137=FACE_OUTER_BOUND('',#216,.T.);
#138=FACE_OUTER_BOUND('',#217,.T.);
#139=FACE_OUTER_BOUND('',#219,.T.);
#140=FACE_OUTER_BOUND('',#220,.T.);
#141=FACE_OUTER_BOUND('',#221,.T.);
#142=FACE_OUTER_BOUND('',#222,.T.);
#143=FACE_OUTER_BOUND('',#223,.T.);
#144=FACE_OUTER_BOUND('',#224,.T.);
#145=FACE_OUTER_BOUND('',#225,.T.);
#146=FACE_OUTER_BOUND('',#226,.T.);
#147=FACE_OUTER_BOUND('',#227,.T.);
#148=FACE_OUTER_BOUND('',#228,.T.);
#149=FACE_OUTER_BOUND('',#229,.T.);
#150=FACE_OUTER_BOUND('',#230,.T.);
#151=FACE_OUTER_BOUND('',#231,.T.);
#152=FACE_OUTER_BOUND('',#232,.T.);
#153=FACE_OUTER_BOUND('',#233,.T.);
#154=FACE_OUTER_BOUND('',#234,.T.);
#155=FACE_OUTER_BOUND('',#235,.T.);
#156=FACE_OUTER_BOUND('',#236,.T.);
#157=FACE_OUTER_BOUND('',#237,.T.);
#158=FACE_OUTER_BOUND('',#238,.T.);
#159=FACE_OUTER_BOUND('',#239,.T.);
#160=FACE_OUTER_BOUND('',#240,.T.);
#161=FACE_OUTER_BOUND('',#243,.T.);
#162=FACE_OUTER_BOUND('',#246,.T.);
#163=FACE_OUTER_BOUND('',#247,.T.);
#164=FACE_OUTER_BOUND('',#248,.T.);
#165=FACE_OUTER_BOUND('',#251,.T.);
#166=FACE_OUTER_BOUND('',#252,.T.);
#167=FACE_OUTER_BOUND('',#253,.T.);
#168=EDGE_LOOP('',(#780,#781,#782,#783));
#169=EDGE_LOOP('',(#784,#785,#786,#787));
#170=EDGE_LOOP('',(#788,#789,#790,#791));
#171=EDGE_LOOP('',(#792,#793,#794,#795));
#172=EDGE_LOOP('',(#796,#797,#798,#799));
#173=EDGE_LOOP('',(#800,#801,#802,#803));
#174=EDGE_LOOP('',(#804,#805,#806,#807));
#175=EDGE_LOOP('',(#808));
#176=EDGE_LOOP('',(#809));
#177=EDGE_LOOP('',(#810));
#178=EDGE_LOOP('',(#811,#812,#813,#814,#815));
#179=EDGE_LOOP('',(#816,#817,#818,#819));
#180=EDGE_LOOP('',(#820,#821,#822,#823));
#181=EDGE_LOOP('',(#824,#825,#826,#827));
#182=EDGE_LOOP('',(#828,#829,#830,#831));
#183=EDGE_LOOP('',(#832,#833,#834,#835));
#184=EDGE_LOOP('',(#836,#837,#838,#839));
#185=EDGE_LOOP('',(#840,#841,#842,#843));
#186=EDGE_LOOP('',(#844,#845,#846,#847));
#187=EDGE_LOOP('',(#848,#849,#850,#851));
#188=EDGE_LOOP('',(#852,#853,#854,#855));
#189=EDGE_LOOP('',(#856,#857,#858,#859));
#190=EDGE_LOOP('',(#860,#861,#862,#863));
#191=EDGE_LOOP('',(#864,#865,#866,#867));
#192=EDGE_LOOP('',(#868,#869,#870,#871));
#193=EDGE_LOOP('',(#872,#873,#874,#875));
#194=EDGE_LOOP('',(#876,#877,#878,#879));
#195=EDGE_LOOP('',(#880,#881,#882,#883));
#196=EDGE_LOOP('',(#884,#885,#886,#887));
#197=EDGE_LOOP('',(#888,#889,#890,#891));
#198=EDGE_LOOP('',(#892,#893,#894,#895));
#199=EDGE_LOOP('',(#896,#897,#898,#899,#900,#901));
#200=EDGE_LOOP('',(#902));
#201=EDGE_LOOP('',(#903,#904,#905,#906,#907,#908));
#202=EDGE_LOOP('',(#909));
#203=EDGE_LOOP('',(#910,#911,#912,#913));
#204=EDGE_LOOP('',(#914));
#205=EDGE_LOOP('',(#915,#916,#917,#918));
#206=EDGE_LOOP('',(#919,#920,#921,#922));
#207=EDGE_LOOP('',(#923,#924,#925,#926));
#208=EDGE_LOOP('',(#927,#928,#929,#930));
#209=EDGE_LOOP('',(#931,#932,#933,#934));
#210=EDGE_LOOP('',(#935));
#211=EDGE_LOOP('',(#936,#937,#938,#939));
#212=EDGE_LOOP('',(#940,#941,#942,#943));
#213=EDGE_LOOP('',(#944,#945,#946,#947));
#214=EDGE_LOOP('',(#948));
#215=EDGE_LOOP('',(#949,#950,#951,#952));
#216=EDGE_LOOP('',(#953,#954,#955,#956));
#217=EDGE_LOOP('',(#957,#958,#959,#960));
#218=EDGE_LOOP('',(#961));
#219=EDGE_LOOP('',(#962,#963,#964,#965));
#220=EDGE_LOOP('',(#966,#967,#968,#969));
#221=EDGE_LOOP('',(#970));
#222=EDGE_LOOP('',(#971,#972,#973,#974));
#223=EDGE_LOOP('',(#975,#976,#977,#978));
#224=EDGE_LOOP('',(#979,#980,#981,#982));
#225=EDGE_LOOP('',(#983,#984,#985,#986));
#226=EDGE_LOOP('',(#987,#988,#989,#990));
#227=EDGE_LOOP('',(#991,#992,#993,#994));
#228=EDGE_LOOP('',(#995,#996,#997,#998));
#229=EDGE_LOOP('',(#999,#1000,#1001,#1002));
#230=EDGE_LOOP('',(#1003,#1004,#1005,#1006));
#231=EDGE_LOOP('',(#1007,#1008,#1009,#1010,#1011,#1012,#1013,#1014,#1015,
#1016,#1017,#1018,#1019));
#232=EDGE_LOOP('',(#1020,#1021,#1022,#1023));
#233=EDGE_LOOP('',(#1024,#1025,#1026,#1027));
#234=EDGE_LOOP('',(#1028,#1029,#1030,#1031,#1032,#1033,#1034,#1035,#1036,
#1037,#1038,#1039,#1040));
#235=EDGE_LOOP('',(#1041,#1042,#1043,#1044));
#236=EDGE_LOOP('',(#1045,#1046,#1047,#1048,#1049));
#237=EDGE_LOOP('',(#1050,#1051,#1052,#1053,#1054));
#238=EDGE_LOOP('',(#1055,#1056,#1057,#1058,#1059,#1060));
#239=EDGE_LOOP('',(#1061,#1062,#1063,#1064));
#240=EDGE_LOOP('',(#1065,#1066));
#241=EDGE_LOOP('',(#1067));
#242=EDGE_LOOP('',(#1068));
#243=EDGE_LOOP('',(#1069,#1070));
#244=EDGE_LOOP('',(#1071));
#245=EDGE_LOOP('',(#1072));
#246=EDGE_LOOP('',(#1073,#1074,#1075,#1076));
#247=EDGE_LOOP('',(#1077,#1078,#1079,#1080));
#248=EDGE_LOOP('',(#1081,#1082));
#249=EDGE_LOOP('',(#1083));
#250=EDGE_LOOP('',(#1084));
#251=EDGE_LOOP('',(#1085,#1086,#1087,#1088,#1089));
#252=EDGE_LOOP('',(#1090,#1091,#1092,#1093));
#253=EDGE_LOOP('',(#1094,#1095));
#254=EDGE_LOOP('',(#1096));
#255=EDGE_LOOP('',(#1097));
#256=LINE('',#1712,#383);
#257=LINE('',#1714,#384);
#258=LINE('',#1716,#385);
#259=LINE('',#1717,#386);
#260=LINE('',#1720,#387);
#261=LINE('',#1722,#388);
#262=LINE('',#1723,#389);
#263=LINE('',#1726,#390);
#264=LINE('',#1727,#391);
#265=LINE('',#1730,#392);
#266=LINE('',#1731,#393);
#267=LINE('',#1733,#394);
#268=LINE('',#1739,#395);
#269=LINE('',#1751,#396);
#270=LINE('',#1758,#397);
#271=LINE('',#1760,#398);
#272=LINE('',#1762,#399);
#273=LINE('',#1763,#400);
#274=LINE('',#1766,#401);
#275=LINE('',#1768,#402);
#276=LINE('',#1769,#403);
#277=LINE('',#1772,#404);
#278=LINE('',#1774,#405);
#279=LINE('',#1775,#406);
#280=LINE('',#1777,#407);
#281=LINE('',#1778,#408);
#282=LINE('',#1784,#409);
#283=LINE('',#1786,#410);
#284=LINE('',#1788,#411);
#285=LINE('',#1789,#412);
#286=LINE('',#1792,#413);
#287=LINE('',#1794,#414);
#288=LINE('',#1795,#415);
#289=LINE('',#1798,#416);
#290=LINE('',#1800,#417);
#291=LINE('',#1801,#418);
#292=LINE('',#1803,#419);
#293=LINE('',#1804,#420);
#294=LINE('',#1811,#421);
#295=LINE('',#1816,#422);
#296=LINE('',#1818,#423);
#297=LINE('',#1820,#424);
#298=LINE('',#1821,#425);
#299=LINE('',#1824,#426);
#300=LINE('',#1826,#427);
#301=LINE('',#1827,#428);
#302=LINE('',#1830,#429);
#303=LINE('',#1832,#430);
#304=LINE('',#1833,#431);
#305=LINE('',#1836,#432);
#306=LINE('',#1838,#433);
#307=LINE('',#1839,#434);
#308=LINE('',#1842,#435);
#309=LINE('',#1844,#436);
#310=LINE('',#1845,#437);
#311=LINE('',#1847,#438);
#312=LINE('',#1848,#439);
#313=LINE('',#1855,#440);
#314=LINE('',#1861,#441);
#315=LINE('',#1863,#442);
#316=LINE('',#1865,#443);
#317=LINE('',#1866,#444);
#318=LINE('',#1869,#445);
#319=LINE('',#1871,#446);
#320=LINE('',#1872,#447);
#321=LINE('',#1875,#448);
#322=LINE('',#1877,#449);
#323=LINE('',#1878,#450);
#324=LINE('',#1880,#451);
#325=LINE('',#1881,#452);
#326=LINE('',#1887,#453);
#327=LINE('',#1889,#454);
#328=LINE('',#1891,#455);
#329=LINE('',#1892,#456);
#330=LINE('',#1897,#457);
#331=LINE('',#1903,#458);
#332=LINE('',#1904,#459);
#333=LINE('',#1905,#460);
#334=LINE('',#1908,#461);
#335=LINE('',#1909,#462);
#336=LINE('',#1912,#463);
#337=LINE('',#1913,#464);
#338=LINE('',#1915,#465);
#339=LINE('',#1923,#466);
#340=LINE('',#1925,#467);
#341=LINE('',#1927,#468);
#342=LINE('',#1928,#469);
#343=LINE('',#1932,#470);
#344=LINE('',#1934,#471);
#345=LINE('',#1936,#472);
#346=LINE('',#1937,#473);
#347=LINE('',#1939,#474);
#348=LINE('',#1940,#475);
#349=LINE('',#1943,#476);
#350=LINE('',#1945,#477);
#351=LINE('',#1946,#478);
#352=LINE('',#1949,#479);
#353=LINE('',#1951,#480);
#354=LINE('',#1952,#481);
#355=LINE('',#1956,#482);
#356=LINE('',#1958,#483);
#357=LINE('',#1960,#484);
#358=LINE('',#1961,#485);
#359=LINE('',#1964,#486);
#360=LINE('',#1966,#487);
#361=LINE('',#1967,#488);
#362=LINE('',#1969,#489);
#363=LINE('',#1970,#490);
#364=LINE('',#1973,#491);
#365=LINE('',#1975,#492);
#366=LINE('',#1976,#493);
#367=LINE('',#1979,#494);
#368=LINE('',#1981,#495);
#369=LINE('',#1983,#496);
#370=LINE('',#1984,#497);
#371=LINE('',#1987,#498);
#372=LINE('',#1988,#499);
#373=LINE('',#1991,#500);
#374=LINE('',#1995,#501);
#375=LINE('',#1996,#502);
#376=LINE('',#1998,#503);
#377=LINE('',#2004,#504);
#378=LINE('',#2009,#505);
#379=LINE('',#2019,#506);
#380=LINE('',#2034,#507);
#381=LINE('',#2039,#508);
#382=LINE('',#2048,#509);
#383=VECTOR('',#1367,10.);
#384=VECTOR('',#1368,10.);
#385=VECTOR('',#1369,10.);
#386=VECTOR('',#1370,10.);
#387=VECTOR('',#1373,10.);
#388=VECTOR('',#1374,10.);
#389=VECTOR('',#1375,10.);
#390=VECTOR('',#1378,10.);
#391=VECTOR('',#1379,10.);
#392=VECTOR('',#1382,10.);
#393=VECTOR('',#1383,10.);
#394=VECTOR('',#1386,10.);
#395=VECTOR('',#1393,37.5);
#396=VECTOR('',#1410,9.99999999999999);
#397=VECTOR('',#1417,10.);
#398=VECTOR('',#1418,10.);
#399=VECTOR('',#1419,10.);
#400=VECTOR('',#1420,10.);
#401=VECTOR('',#1423,10.);
#402=VECTOR('',#1424,10.);
#403=VECTOR('',#1425,10.);
#404=VECTOR('',#1428,10.);
#405=VECTOR('',#1429,10.);
#406=VECTOR('',#1430,10.);
#407=VECTOR('',#1433,10.);
#408=VECTOR('',#1434,10.);
#409=VECTOR('',#1441,10.);
#410=VECTOR('',#1442,10.);
#411=VECTOR('',#1443,10.);
#412=VECTOR('',#1444,10.);
#413=VECTOR('',#1447,10.);
#414=VECTOR('',#1448,10.);
#415=VECTOR('',#1449,10.);
#416=VECTOR('',#1452,10.);
#417=VECTOR('',#1453,10.);
#418=VECTOR('',#1454,10.);
#419=VECTOR('',#1457,10.);
#420=VECTOR('',#1458,10.);
#421=VECTOR('',#1467,3.50000000000001);
#422=VECTOR('',#1472,10.);
#423=VECTOR('',#1473,10.);
#424=VECTOR('',#1474,10.);
#425=VECTOR('',#1475,10.);
#426=VECTOR('',#1478,10.);
#427=VECTOR('',#1479,10.);
#428=VECTOR('',#1480,10.);
#429=VECTOR('',#1483,10.);
#430=VECTOR('',#1484,10.);
#431=VECTOR('',#1485,10.);
#432=VECTOR('',#1488,10.);
#433=VECTOR('',#1489,10.);
#434=VECTOR('',#1490,10.);
#435=VECTOR('',#1493,10.);
#436=VECTOR('',#1494,10.);
#437=VECTOR('',#1495,10.);
#438=VECTOR('',#1498,10.);
#439=VECTOR('',#1499,10.);
#440=VECTOR('',#1508,3.00000000000004);
#441=VECTOR('',#1515,10.);
#442=VECTOR('',#1516,10.);
#443=VECTOR('',#1517,10.);
#444=VECTOR('',#1518,10.);
#445=VECTOR('',#1521,10.);
#446=VECTOR('',#1522,10.);
#447=VECTOR('',#1523,10.);
#448=VECTOR('',#1526,10.);
#449=VECTOR('',#1527,10.);
#450=VECTOR('',#1528,10.);
#451=VECTOR('',#1531,10.);
#452=VECTOR('',#1532,10.);
#453=VECTOR('',#1539,10.);
#454=VECTOR('',#1540,10.);
#455=VECTOR('',#1541,10.);
#456=VECTOR('',#1542,10.);
#457=VECTOR('',#1547,5.);
#458=VECTOR('',#1554,10.);
#459=VECTOR('',#1555,10.);
#460=VECTOR('',#1556,10.);
#461=VECTOR('',#1559,10.);
#462=VECTOR('',#1560,10.);
#463=VECTOR('',#1563,10.);
#464=VECTOR('',#1564,10.);
#465=VECTOR('',#1567,10.);
#466=VECTOR('',#1576,10.);
#467=VECTOR('',#1577,10.);
#468=VECTOR('',#1578,10.);
#469=VECTOR('',#1579,10.);
#470=VECTOR('',#1582,10.);
#471=VECTOR('',#1583,10.);
#472=VECTOR('',#1584,10.);
#473=VECTOR('',#1585,10.);
#474=VECTOR('',#1588,10.);
#475=VECTOR('',#1589,10.);
#476=VECTOR('',#1592,10.);
#477=VECTOR('',#1593,10.);
#478=VECTOR('',#1594,10.);
#479=VECTOR('',#1597,10.);
#480=VECTOR('',#1598,10.);
#481=VECTOR('',#1599,10.);
#482=VECTOR('',#1602,10.);
#483=VECTOR('',#1603,10.);
#484=VECTOR('',#1604,10.);
#485=VECTOR('',#1605,10.);
#486=VECTOR('',#1608,10.);
#487=VECTOR('',#1609,10.);
#488=VECTOR('',#1610,10.);
#489=VECTOR('',#1613,10.);
#490=VECTOR('',#1614,10.);
#491=VECTOR('',#1617,10.);
#492=VECTOR('',#1618,10.);
#493=VECTOR('',#1619,10.);
#494=VECTOR('',#1622,10.);
#495=VECTOR('',#1623,10.);
#496=VECTOR('',#1624,10.);
#497=VECTOR('',#1625,10.);
#498=VECTOR('',#1628,10.);
#499=VECTOR('',#1629,10.);
#500=VECTOR('',#1632,10.);
#501=VECTOR('',#1637,10.);
#502=VECTOR('',#1638,10.);
#503=VECTOR('',#1641,10.);
#504=VECTOR('',#1648,5.19432484621217);
#505=VECTOR('',#1653,9.99999999999999);
#506=VECTOR('',#1666,10.0000000000001);
#507=VECTOR('',#1683,9.99999999999996);
#508=VECTOR('',#1688,9.99999999999996);
#509=VECTOR('',#1699,10.);
#510=VERTEX_POINT('',#1710);
#511=VERTEX_POINT('',#1711);
#512=VERTEX_POINT('',#1713);
#513=VERTEX_POINT('',#1715);
#514=VERTEX_POINT('',#1719);
#515=VERTEX_POINT('',#1721);
#516=VERTEX_POINT('',#1725);
#517=VERTEX_POINT('',#1729);
#518=VERTEX_POINT('',#1736);
#519=VERTEX_POINT('',#1738);
#520=VERTEX_POINT('',#1744);
#521=VERTEX_POINT('',#1747);
#522=VERTEX_POINT('',#1748);
#523=VERTEX_POINT('',#1753);
#524=VERTEX_POINT('',#1756);
#525=VERTEX_POINT('',#1757);
#526=VERTEX_POINT('',#1759);
#527=VERTEX_POINT('',#1761);
#528=VERTEX_POINT('',#1765);
#529=VERTEX_POINT('',#1767);
#530=VERTEX_POINT('',#1771);
#531=VERTEX_POINT('',#1773);
#532=VERTEX_POINT('',#1782);
#533=VERTEX_POINT('',#1783);
#534=VERTEX_POINT('',#1785);
#535=VERTEX_POINT('',#1787);
#536=VERTEX_POINT('',#1791);
#537=VERTEX_POINT('',#1793);
#538=VERTEX_POINT('',#1797);
#539=VERTEX_POINT('',#1799);
#540=VERTEX_POINT('',#1808);
#541=VERTEX_POINT('',#1810);
#542=VERTEX_POINT('',#1814);
#543=VERTEX_POINT('',#1815);
#544=VERTEX_POINT('',#1817);
#545=VERTEX_POINT('',#1819);
#546=VERTEX_POINT('',#1823);
#547=VERTEX_POINT('',#1825);
#548=VERTEX_POINT('',#1829);
#549=VERTEX_POINT('',#1831);
#550=VERTEX_POINT('',#1835);
#551=VERTEX_POINT('',#1837);
#552=VERTEX_POINT('',#1841);
#553=VERTEX_POINT('',#1843);
#554=VERTEX_POINT('',#1852);
#555=VERTEX_POINT('',#1854);
#556=VERTEX_POINT('',#1859);
#557=VERTEX_POINT('',#1860);
#558=VERTEX_POINT('',#1862);
#559=VERTEX_POINT('',#1864);
#560=VERTEX_POINT('',#1868);
#561=VERTEX_POINT('',#1870);
#562=VERTEX_POINT('',#1874);
#563=VERTEX_POINT('',#1876);
#564=VERTEX_POINT('',#1885);
#565=VERTEX_POINT('',#1886);
#566=VERTEX_POINT('',#1888);
#567=VERTEX_POINT('',#1890);
#568=VERTEX_POINT('',#1894);
#569=VERTEX_POINT('',#1896);
#570=VERTEX_POINT('',#1901);
#571=VERTEX_POINT('',#1902);
#572=VERTEX_POINT('',#1907);
#573=VERTEX_POINT('',#1911);
#574=VERTEX_POINT('',#1918);
#575=VERTEX_POINT('',#1921);
#576=VERTEX_POINT('',#1922);
#577=VERTEX_POINT('',#1924);
#578=VERTEX_POINT('',#1926);
#579=VERTEX_POINT('',#1930);
#580=VERTEX_POINT('',#1931);
#581=VERTEX_POINT('',#1933);
#582=VERTEX_POINT('',#1935);
#583=VERTEX_POINT('',#1942);
#584=VERTEX_POINT('',#1944);
#585=VERTEX_POINT('',#1948);
#586=VERTEX_POINT('',#1950);
#587=VERTEX_POINT('',#1954);
#588=VERTEX_POINT('',#1955);
#589=VERTEX_POINT('',#1957);
#590=VERTEX_POINT('',#1959);
#591=VERTEX_POINT('',#1963);
#592=VERTEX_POINT('',#1965);
#593=VERTEX_POINT('',#1972);
#594=VERTEX_POINT('',#1974);
#595=VERTEX_POINT('',#1978);
#596=VERTEX_POINT('',#1980);
#597=VERTEX_POINT('',#1982);
#598=VERTEX_POINT('',#1986);
#599=VERTEX_POINT('',#1990);
#600=VERTEX_POINT('',#1994);
#601=VERTEX_POINT('',#2000);
#602=VERTEX_POINT('',#2001);
#603=VERTEX_POINT('',#2006);
#604=VERTEX_POINT('',#2008);
#605=VERTEX_POINT('',#2010);
#606=VERTEX_POINT('',#2016);
#607=VERTEX_POINT('',#2018);
#608=VERTEX_POINT('',#2022);
#609=VERTEX_POINT('',#2023);
#610=VERTEX_POINT('',#2026);
#611=VERTEX_POINT('',#2027);
#612=VERTEX_POINT('',#2029);
#613=VERTEX_POINT('',#2032);
#614=VERTEX_POINT('',#2036);
#615=VERTEX_POINT('',#2038);
#616=VERTEX_POINT('',#2042);
#617=VERTEX_POINT('',#2043);
#618=VERTEX_POINT('',#2047);
#619=VERTEX_POINT('',#2052);
#620=VERTEX_POINT('',#2053);
#621=EDGE_CURVE('',#510,#511,#256,.T.);
#622=EDGE_CURVE('',#511,#512,#257,.T.);
#623=EDGE_CURVE('',#512,#513,#258,.T.);
#624=EDGE_CURVE('',#513,#510,#259,.T.);
#625=EDGE_CURVE('',#514,#512,#260,.T.);
#626=EDGE_CURVE('',#515,#514,#261,.T.);
#627=EDGE_CURVE('',#515,#513,#262,.T.);
#628=EDGE_CURVE('',#516,#510,#263,.T.);
#629=EDGE_CURVE('',#516,#515,#264,.T.);
#630=EDGE_CURVE('',#517,#516,#265,.T.);
#631=EDGE_CURVE('',#514,#517,#266,.T.);
#632=EDGE_CURVE('',#511,#517,#267,.T.);
#633=EDGE_CURVE('',#518,#518,#31,.T.);
#634=EDGE_CURVE('',#518,#519,#268,.T.);
#635=EDGE_CURVE('',#519,#519,#32,.T.);
#636=EDGE_CURVE('',#520,#520,#33,.T.);
#637=EDGE_CURVE('',#521,#522,#34,.T.);
#638=EDGE_CURVE('',#522,#521,#35,.T.);
#639=EDGE_CURVE('',#522,#520,#269,.T.);
#640=EDGE_CURVE('',#521,#523,#36,.T.);
#641=EDGE_CURVE('',#524,#525,#270,.T.);
#642=EDGE_CURVE('',#524,#526,#271,.T.);
#643=EDGE_CURVE('',#527,#526,#272,.T.);
#644=EDGE_CURVE('',#525,#527,#273,.T.);
#645=EDGE_CURVE('',#525,#528,#274,.T.);
#646=EDGE_CURVE('',#529,#527,#275,.T.);
#647=EDGE_CURVE('',#528,#529,#276,.T.);
#648=EDGE_CURVE('',#528,#530,#277,.T.);
#649=EDGE_CURVE('',#531,#529,#278,.T.);
#650=EDGE_CURVE('',#530,#531,#279,.T.);
#651=EDGE_CURVE('',#530,#524,#280,.T.);
#652=EDGE_CURVE('',#526,#531,#281,.T.);
#653=EDGE_CURVE('',#532,#533,#282,.T.);
#654=EDGE_CURVE('',#532,#534,#283,.T.);
#655=EDGE_CURVE('',#535,#534,#284,.T.);
#656=EDGE_CURVE('',#533,#535,#285,.T.);
#657=EDGE_CURVE('',#533,#536,#286,.T.);
#658=EDGE_CURVE('',#537,#535,#287,.T.);
#659=EDGE_CURVE('',#536,#537,#288,.T.);
#660=EDGE_CURVE('',#536,#538,#289,.T.);
#661=EDGE_CURVE('',#539,#537,#290,.T.);
#662=EDGE_CURVE('',#538,#539,#291,.T.);
#663=EDGE_CURVE('',#538,#532,#292,.T.);
#664=EDGE_CURVE('',#534,#539,#293,.T.);
#665=EDGE_CURVE('',#540,#540,#37,.T.);
#666=EDGE_CURVE('',#540,#541,#294,.T.);
#667=EDGE_CURVE('',#541,#541,#38,.T.);
#668=EDGE_CURVE('',#542,#543,#295,.T.);
#669=EDGE_CURVE('',#543,#544,#296,.T.);
#670=EDGE_CURVE('',#545,#544,#297,.T.);
#671=EDGE_CURVE('',#542,#545,#298,.T.);
#672=EDGE_CURVE('',#546,#542,#299,.T.);
#673=EDGE_CURVE('',#547,#545,#300,.T.);
#674=EDGE_CURVE('',#546,#547,#301,.T.);
#675=EDGE_CURVE('',#548,#546,#302,.T.);
#676=EDGE_CURVE('',#549,#547,#303,.T.);
#677=EDGE_CURVE('',#548,#549,#304,.T.);
#678=EDGE_CURVE('',#550,#548,#305,.T.);
#679=EDGE_CURVE('',#551,#549,#306,.T.);
#680=EDGE_CURVE('',#550,#551,#307,.T.);
#681=EDGE_CURVE('',#552,#550,#308,.T.);
#682=EDGE_CURVE('',#553,#551,#309,.T.);
#683=EDGE_CURVE('',#552,#553,#310,.T.);
#684=EDGE_CURVE('',#543,#552,#311,.T.);
#685=EDGE_CURVE('',#544,#553,#312,.T.);
#686=EDGE_CURVE('',#554,#554,#39,.T.);
#687=EDGE_CURVE('',#554,#555,#313,.T.);
#688=EDGE_CURVE('',#555,#555,#40,.T.);
#689=EDGE_CURVE('',#556,#557,#314,.T.);
#690=EDGE_CURVE('',#556,#558,#315,.T.);
#691=EDGE_CURVE('',#559,#558,#316,.T.);
#692=EDGE_CURVE('',#557,#559,#317,.T.);
#693=EDGE_CURVE('',#557,#560,#318,.T.);
#694=EDGE_CURVE('',#561,#559,#319,.T.);
#695=EDGE_CURVE('',#560,#561,#320,.T.);
#696=EDGE_CURVE('',#560,#562,#321,.T.);
#697=EDGE_CURVE('',#563,#561,#322,.T.);
#698=EDGE_CURVE('',#562,#563,#323,.T.);
#699=EDGE_CURVE('',#562,#556,#324,.T.);
#700=EDGE_CURVE('',#558,#563,#325,.T.);
#701=EDGE_CURVE('',#564,#565,#326,.T.);
#702=EDGE_CURVE('',#565,#566,#327,.T.);
#703=EDGE_CURVE('',#566,#567,#328,.T.);
#704=EDGE_CURVE('',#567,#564,#329,.T.);
#705=EDGE_CURVE('',#568,#568,#41,.T.);
#706=EDGE_CURVE('',#568,#569,#330,.T.);
#707=EDGE_CURVE('',#569,#569,#42,.T.);
#708=EDGE_CURVE('',#570,#571,#331,.T.);
#709=EDGE_CURVE('',#571,#564,#332,.T.);
#710=EDGE_CURVE('',#570,#567,#333,.T.);
#711=EDGE_CURVE('',#572,#570,#334,.T.);
#712=EDGE_CURVE('',#572,#566,#335,.T.);
#713=EDGE_CURVE('',#573,#565,#336,.T.);
#714=EDGE_CURVE('',#573,#572,#337,.T.);
#715=EDGE_CURVE('',#571,#573,#338,.T.);
#716=EDGE_CURVE('',#574,#574,#43,.T.);
#717=EDGE_CURVE('',#575,#576,#339,.T.);
#718=EDGE_CURVE('',#575,#577,#340,.T.);
#719=EDGE_CURVE('',#578,#577,#341,.T.);
#720=EDGE_CURVE('',#576,#578,#342,.T.);
#721=EDGE_CURVE('',#579,#580,#343,.T.);
#722=EDGE_CURVE('',#579,#581,#344,.T.);
#723=EDGE_CURVE('',#582,#581,#345,.T.);
#724=EDGE_CURVE('',#580,#582,#346,.T.);
#725=EDGE_CURVE('',#581,#578,#347,.T.);
#726=EDGE_CURVE('',#577,#582,#348,.T.);
#727=EDGE_CURVE('',#576,#583,#349,.T.);
#728=EDGE_CURVE('',#583,#584,#350,.T.);
#729=EDGE_CURVE('',#584,#575,#351,.T.);
#730=EDGE_CURVE('',#580,#585,#352,.T.);
#731=EDGE_CURVE('',#586,#585,#353,.T.);
#732=EDGE_CURVE('',#586,#579,#354,.T.);
#733=EDGE_CURVE('',#587,#588,#355,.T.);
#734=EDGE_CURVE('',#587,#589,#356,.T.);
#735=EDGE_CURVE('',#590,#589,#357,.T.);
#736=EDGE_CURVE('',#588,#590,#358,.T.);
#737=EDGE_CURVE('',#583,#591,#359,.T.);
#738=EDGE_CURVE('',#592,#591,#360,.T.);
#739=EDGE_CURVE('',#584,#592,#361,.T.);
#740=EDGE_CURVE('',#589,#592,#362,.T.);
#741=EDGE_CURVE('',#591,#590,#363,.T.);
#742=EDGE_CURVE('',#588,#593,#364,.T.);
#743=EDGE_CURVE('',#594,#593,#365,.T.);
#744=EDGE_CURVE('',#594,#587,#366,.T.);
#745=EDGE_CURVE('',#595,#594,#367,.T.);
#746=EDGE_CURVE('',#596,#595,#368,.T.);
#747=EDGE_CURVE('',#597,#596,#369,.T.);
#748=EDGE_CURVE('',#585,#597,#370,.T.);
#749=EDGE_CURVE('',#593,#598,#371,.T.);
#750=EDGE_CURVE('',#598,#595,#372,.T.);
#751=EDGE_CURVE('',#598,#599,#373,.T.);
#752=EDGE_CURVE('',#599,#596,#44,.T.);
#753=EDGE_CURVE('',#600,#586,#374,.T.);
#754=EDGE_CURVE('',#599,#600,#375,.T.);
#755=EDGE_CURVE('',#597,#600,#376,.T.);
#756=EDGE_CURVE('',#601,#602,#45,.T.);
#757=EDGE_CURVE('',#602,#601,#46,.T.);
#758=EDGE_CURVE('',#602,#574,#377,.T.);
#759=EDGE_CURVE('',#603,#603,#47,.T.);
#760=EDGE_CURVE('',#603,#604,#378,.T.);
#761=EDGE_CURVE('',#604,#605,#48,.T.);
#762=EDGE_CURVE('',#605,#604,#49,.T.);
#763=EDGE_CURVE('',#605,#601,#50,.T.);
#764=EDGE_CURVE('',#606,#606,#51,.T.);
#765=EDGE_CURVE('',#606,#607,#379,.T.);
#766=EDGE_CURVE('',#607,#607,#52,.T.);
#767=EDGE_CURVE('',#608,#609,#53,.T.);
#768=EDGE_CURVE('',#610,#611,#54,.T.);
#769=EDGE_CURVE('',#612,#612,#55,.T.);
#770=EDGE_CURVE('',#613,#613,#56,.T.);
#771=EDGE_CURVE('',#613,#612,#380,.T.);
#772=EDGE_CURVE('',#614,#614,#57,.T.);
#773=EDGE_CURVE('',#614,#615,#381,.T.);
#774=EDGE_CURVE('',#615,#615,#58,.T.);
#775=EDGE_CURVE('',#616,#617,#59,.T.);
#776=EDGE_CURVE('',#596,#599,#60,.T.);
#777=EDGE_CURVE('',#596,#618,#382,.T.);
#778=EDGE_CURVE('',#618,#618,#61,.T.);
#779=EDGE_CURVE('',#619,#620,#62,.T.);
#780=ORIENTED_EDGE('',*,*,#621,.T.);
#781=ORIENTED_EDGE('',*,*,#622,.T.);
#782=ORIENTED_EDGE('',*,*,#623,.T.);
#783=ORIENTED_EDGE('',*,*,#624,.T.);
#784=ORIENTED_EDGE('',*,*,#623,.F.);
#785=ORIENTED_EDGE('',*,*,#625,.F.);
#786=ORIENTED_EDGE('',*,*,#626,.F.);
#787=ORIENTED_EDGE('',*,*,#627,.T.);
#788=ORIENTED_EDGE('',*,*,#628,.T.);
#789=ORIENTED_EDGE('',*,*,#624,.F.);
#790=ORIENTED_EDGE('',*,*,#627,.F.);
#791=ORIENTED_EDGE('',*,*,#629,.F.);
#792=ORIENTED_EDGE('',*,*,#630,.T.);
#793=ORIENTED_EDGE('',*,*,#629,.T.);
#794=ORIENTED_EDGE('',*,*,#626,.T.);
#795=ORIENTED_EDGE('',*,*,#631,.T.);
#796=ORIENTED_EDGE('',*,*,#632,.T.);
#797=ORIENTED_EDGE('',*,*,#631,.F.);
#798=ORIENTED_EDGE('',*,*,#625,.T.);
#799=ORIENTED_EDGE('',*,*,#622,.F.);
#800=ORIENTED_EDGE('',*,*,#621,.F.);
#801=ORIENTED_EDGE('',*,*,#628,.F.);
#802=ORIENTED_EDGE('',*,*,#630,.F.);
#803=ORIENTED_EDGE('',*,*,#632,.F.);
#804=ORIENTED_EDGE('',*,*,#633,.F.);
#805=ORIENTED_EDGE('',*,*,#634,.T.);
#806=ORIENTED_EDGE('',*,*,#635,.T.);
#807=ORIENTED_EDGE('',*,*,#634,.F.);
#808=ORIENTED_EDGE('',*,*,#633,.T.);
#809=ORIENTED_EDGE('',*,*,#635,.F.);
#810=ORIENTED_EDGE('',*,*,#636,.F.);
#811=ORIENTED_EDGE('',*,*,#637,.F.);
#812=ORIENTED_EDGE('',*,*,#638,.F.);
#813=ORIENTED_EDGE('',*,*,#639,.T.);
#814=ORIENTED_EDGE('',*,*,#636,.T.);
#815=ORIENTED_EDGE('',*,*,#639,.F.);
#816=ORIENTED_EDGE('',*,*,#637,.T.);
#817=ORIENTED_EDGE('',*,*,#638,.T.);
#818=ORIENTED_EDGE('',*,*,#640,.T.);
#819=ORIENTED_EDGE('',*,*,#640,.F.);
#820=ORIENTED_EDGE('',*,*,#641,.F.);
#821=ORIENTED_EDGE('',*,*,#642,.T.);
#822=ORIENTED_EDGE('',*,*,#643,.F.);
#823=ORIENTED_EDGE('',*,*,#644,.F.);
#824=ORIENTED_EDGE('',*,*,#645,.F.);
#825=ORIENTED_EDGE('',*,*,#644,.T.);
#826=ORIENTED_EDGE('',*,*,#646,.F.);
#827=ORIENTED_EDGE('',*,*,#647,.F.);
#828=ORIENTED_EDGE('',*,*,#648,.F.);
#829=ORIENTED_EDGE('',*,*,#647,.T.);
#830=ORIENTED_EDGE('',*,*,#649,.F.);
#831=ORIENTED_EDGE('',*,*,#650,.F.);
#832=ORIENTED_EDGE('',*,*,#651,.F.);
#833=ORIENTED_EDGE('',*,*,#650,.T.);
#834=ORIENTED_EDGE('',*,*,#652,.F.);
#835=ORIENTED_EDGE('',*,*,#642,.F.);
#836=ORIENTED_EDGE('',*,*,#652,.T.);
#837=ORIENTED_EDGE('',*,*,#649,.T.);
#838=ORIENTED_EDGE('',*,*,#646,.T.);
#839=ORIENTED_EDGE('',*,*,#643,.T.);
#840=ORIENTED_EDGE('',*,*,#651,.T.);
#841=ORIENTED_EDGE('',*,*,#641,.T.);
#842=ORIENTED_EDGE('',*,*,#645,.T.);
#843=ORIENTED_EDGE('',*,*,#648,.T.);
#844=ORIENTED_EDGE('',*,*,#653,.F.);
#845=ORIENTED_EDGE('',*,*,#654,.T.);
#846=ORIENTED_EDGE('',*,*,#655,.F.);
#847=ORIENTED_EDGE('',*,*,#656,.F.);
#848=ORIENTED_EDGE('',*,*,#657,.F.);
#849=ORIENTED_EDGE('',*,*,#656,.T.);
#850=ORIENTED_EDGE('',*,*,#658,.F.);
#851=ORIENTED_EDGE('',*,*,#659,.F.);
#852=ORIENTED_EDGE('',*,*,#660,.F.);
#853=ORIENTED_EDGE('',*,*,#659,.T.);
#854=ORIENTED_EDGE('',*,*,#661,.F.);
#855=ORIENTED_EDGE('',*,*,#662,.F.);
#856=ORIENTED_EDGE('',*,*,#663,.F.);
#857=ORIENTED_EDGE('',*,*,#662,.T.);
#858=ORIENTED_EDGE('',*,*,#664,.F.);
#859=ORIENTED_EDGE('',*,*,#654,.F.);
#860=ORIENTED_EDGE('',*,*,#664,.T.);
#861=ORIENTED_EDGE('',*,*,#661,.T.);
#862=ORIENTED_EDGE('',*,*,#658,.T.);
#863=ORIENTED_EDGE('',*,*,#655,.T.);
#864=ORIENTED_EDGE('',*,*,#663,.T.);
#865=ORIENTED_EDGE('',*,*,#653,.T.);
#866=ORIENTED_EDGE('',*,*,#657,.T.);
#867=ORIENTED_EDGE('',*,*,#660,.T.);
#868=ORIENTED_EDGE('',*,*,#665,.F.);
#869=ORIENTED_EDGE('',*,*,#666,.T.);
#870=ORIENTED_EDGE('',*,*,#667,.T.);
#871=ORIENTED_EDGE('',*,*,#666,.F.);
#872=ORIENTED_EDGE('',*,*,#668,.T.);
#873=ORIENTED_EDGE('',*,*,#669,.T.);
#874=ORIENTED_EDGE('',*,*,#670,.F.);
#875=ORIENTED_EDGE('',*,*,#671,.F.);
#876=ORIENTED_EDGE('',*,*,#672,.T.);
#877=ORIENTED_EDGE('',*,*,#671,.T.);
#878=ORIENTED_EDGE('',*,*,#673,.F.);
#879=ORIENTED_EDGE('',*,*,#674,.F.);
#880=ORIENTED_EDGE('',*,*,#675,.T.);
#881=ORIENTED_EDGE('',*,*,#674,.T.);
#882=ORIENTED_EDGE('',*,*,#676,.F.);
#883=ORIENTED_EDGE('',*,*,#677,.F.);
#884=ORIENTED_EDGE('',*,*,#678,.T.);
#885=ORIENTED_EDGE('',*,*,#677,.T.);
#886=ORIENTED_EDGE('',*,*,#679,.F.);
#887=ORIENTED_EDGE('',*,*,#680,.F.);
#888=ORIENTED_EDGE('',*,*,#681,.T.);
#889=ORIENTED_EDGE('',*,*,#680,.T.);
#890=ORIENTED_EDGE('',*,*,#682,.F.);
#891=ORIENTED_EDGE('',*,*,#683,.F.);
#892=ORIENTED_EDGE('',*,*,#684,.T.);
#893=ORIENTED_EDGE('',*,*,#683,.T.);
#894=ORIENTED_EDGE('',*,*,#685,.F.);
#895=ORIENTED_EDGE('',*,*,#669,.F.);
#896=ORIENTED_EDGE('',*,*,#685,.T.);
#897=ORIENTED_EDGE('',*,*,#682,.T.);
#898=ORIENTED_EDGE('',*,*,#679,.T.);
#899=ORIENTED_EDGE('',*,*,#676,.T.);
#900=ORIENTED_EDGE('',*,*,#673,.T.);
#901=ORIENTED_EDGE('',*,*,#670,.T.);
#902=ORIENTED_EDGE('',*,*,#665,.T.);
#903=ORIENTED_EDGE('',*,*,#684,.F.);
#904=ORIENTED_EDGE('',*,*,#668,.F.);
#905=ORIENTED_EDGE('',*,*,#672,.F.);
#906=ORIENTED_EDGE('',*,*,#675,.F.);
#907=ORIENTED_EDGE('',*,*,#678,.F.);
#908=ORIENTED_EDGE('',*,*,#681,.F.);
#909=ORIENTED_EDGE('',*,*,#667,.F.);
#910=ORIENTED_EDGE('',*,*,#686,.F.);
#911=ORIENTED_EDGE('',*,*,#687,.T.);
#912=ORIENTED_EDGE('',*,*,#688,.F.);
#913=ORIENTED_EDGE('',*,*,#687,.F.);
#914=ORIENTED_EDGE('',*,*,#686,.T.);
#915=ORIENTED_EDGE('',*,*,#689,.F.);
#916=ORIENTED_EDGE('',*,*,#690,.T.);
#917=ORIENTED_EDGE('',*,*,#691,.F.);
#918=ORIENTED_EDGE('',*,*,#692,.F.);
#919=ORIENTED_EDGE('',*,*,#693,.F.);
#920=ORIENTED_EDGE('',*,*,#692,.T.);
#921=ORIENTED_EDGE('',*,*,#694,.F.);
#922=ORIENTED_EDGE('',*,*,#695,.F.);
#923=ORIENTED_EDGE('',*,*,#696,.F.);
#924=ORIENTED_EDGE('',*,*,#695,.T.);
#925=ORIENTED_EDGE('',*,*,#697,.F.);
#926=ORIENTED_EDGE('',*,*,#698,.F.);
#927=ORIENTED_EDGE('',*,*,#699,.F.);
#928=ORIENTED_EDGE('',*,*,#698,.T.);
#929=ORIENTED_EDGE('',*,*,#700,.F.);
#930=ORIENTED_EDGE('',*,*,#690,.F.);
#931=ORIENTED_EDGE('',*,*,#700,.T.);
#932=ORIENTED_EDGE('',*,*,#697,.T.);
#933=ORIENTED_EDGE('',*,*,#694,.T.);
#934=ORIENTED_EDGE('',*,*,#691,.T.);
#935=ORIENTED_EDGE('',*,*,#688,.T.);
#936=ORIENTED_EDGE('',*,*,#699,.T.);
#937=ORIENTED_EDGE('',*,*,#689,.T.);
#938=ORIENTED_EDGE('',*,*,#693,.T.);
#939=ORIENTED_EDGE('',*,*,#696,.T.);
#940=ORIENTED_EDGE('',*,*,#701,.T.);
#941=ORIENTED_EDGE('',*,*,#702,.T.);
#942=ORIENTED_EDGE('',*,*,#703,.T.);
#943=ORIENTED_EDGE('',*,*,#704,.T.);
#944=ORIENTED_EDGE('',*,*,#705,.F.);
#945=ORIENTED_EDGE('',*,*,#706,.T.);
#946=ORIENTED_EDGE('',*,*,#707,.F.);
#947=ORIENTED_EDGE('',*,*,#706,.F.);
#948=ORIENTED_EDGE('',*,*,#705,.T.);
#949=ORIENTED_EDGE('',*,*,#708,.T.);
#950=ORIENTED_EDGE('',*,*,#709,.T.);
#951=ORIENTED_EDGE('',*,*,#704,.F.);
#952=ORIENTED_EDGE('',*,*,#710,.F.);
#953=ORIENTED_EDGE('',*,*,#711,.T.);
#954=ORIENTED_EDGE('',*,*,#710,.T.);
#955=ORIENTED_EDGE('',*,*,#703,.F.);
#956=ORIENTED_EDGE('',*,*,#712,.F.);
#957=ORIENTED_EDGE('',*,*,#713,.F.);
#958=ORIENTED_EDGE('',*,*,#714,.T.);
#959=ORIENTED_EDGE('',*,*,#712,.T.);
#960=ORIENTED_EDGE('',*,*,#702,.F.);
#961=ORIENTED_EDGE('',*,*,#707,.T.);
#962=ORIENTED_EDGE('',*,*,#715,.T.);
#963=ORIENTED_EDGE('',*,*,#713,.T.);
#964=ORIENTED_EDGE('',*,*,#701,.F.);
#965=ORIENTED_EDGE('',*,*,#709,.F.);
#966=ORIENTED_EDGE('',*,*,#715,.F.);
#967=ORIENTED_EDGE('',*,*,#708,.F.);
#968=ORIENTED_EDGE('',*,*,#711,.F.);
#969=ORIENTED_EDGE('',*,*,#714,.F.);
#970=ORIENTED_EDGE('',*,*,#716,.T.);
#971=ORIENTED_EDGE('',*,*,#717,.F.);
#972=ORIENTED_EDGE('',*,*,#718,.T.);
#973=ORIENTED_EDGE('',*,*,#719,.F.);
#974=ORIENTED_EDGE('',*,*,#720,.F.);
#975=ORIENTED_EDGE('',*,*,#721,.F.);
#976=ORIENTED_EDGE('',*,*,#722,.T.);
#977=ORIENTED_EDGE('',*,*,#723,.F.);
#978=ORIENTED_EDGE('',*,*,#724,.F.);
#979=ORIENTED_EDGE('',*,*,#723,.T.);
#980=ORIENTED_EDGE('',*,*,#725,.T.);
#981=ORIENTED_EDGE('',*,*,#719,.T.);
#982=ORIENTED_EDGE('',*,*,#726,.T.);
#983=ORIENTED_EDGE('',*,*,#717,.T.);
#984=ORIENTED_EDGE('',*,*,#727,.T.);
#985=ORIENTED_EDGE('',*,*,#728,.T.);
#986=ORIENTED_EDGE('',*,*,#729,.T.);
#987=ORIENTED_EDGE('',*,*,#721,.T.);
#988=ORIENTED_EDGE('',*,*,#730,.T.);
#989=ORIENTED_EDGE('',*,*,#731,.F.);
#990=ORIENTED_EDGE('',*,*,#732,.T.);
#991=ORIENTED_EDGE('',*,*,#733,.F.);
#992=ORIENTED_EDGE('',*,*,#734,.T.);
#993=ORIENTED_EDGE('',*,*,#735,.F.);
#994=ORIENTED_EDGE('',*,*,#736,.F.);
#995=ORIENTED_EDGE('',*,*,#728,.F.);
#996=ORIENTED_EDGE('',*,*,#737,.T.);
#997=ORIENTED_EDGE('',*,*,#738,.F.);
#998=ORIENTED_EDGE('',*,*,#739,.F.);
#999=ORIENTED_EDGE('',*,*,#740,.T.);
#1000=ORIENTED_EDGE('',*,*,#738,.T.);
#1001=ORIENTED_EDGE('',*,*,#741,.T.);
#1002=ORIENTED_EDGE('',*,*,#735,.T.);
#1003=ORIENTED_EDGE('',*,*,#733,.T.);
#1004=ORIENTED_EDGE('',*,*,#742,.T.);
#1005=ORIENTED_EDGE('',*,*,#743,.F.);
#1006=ORIENTED_EDGE('',*,*,#744,.T.);
#1007=ORIENTED_EDGE('',*,*,#744,.F.);
#1008=ORIENTED_EDGE('',*,*,#745,.F.);
#1009=ORIENTED_EDGE('',*,*,#746,.F.);
#1010=ORIENTED_EDGE('',*,*,#747,.F.);
#1011=ORIENTED_EDGE('',*,*,#748,.F.);
#1012=ORIENTED_EDGE('',*,*,#730,.F.);
#1013=ORIENTED_EDGE('',*,*,#724,.T.);
#1014=ORIENTED_EDGE('',*,*,#726,.F.);
#1015=ORIENTED_EDGE('',*,*,#718,.F.);
#1016=ORIENTED_EDGE('',*,*,#729,.F.);
#1017=ORIENTED_EDGE('',*,*,#739,.T.);
#1018=ORIENTED_EDGE('',*,*,#740,.F.);
#1019=ORIENTED_EDGE('',*,*,#734,.F.);
#1020=ORIENTED_EDGE('',*,*,#745,.T.);
#1021=ORIENTED_EDGE('',*,*,#743,.T.);
#1022=ORIENTED_EDGE('',*,*,#749,.T.);
#1023=ORIENTED_EDGE('',*,*,#750,.T.);
#1024=ORIENTED_EDGE('',*,*,#746,.T.);
#1025=ORIENTED_EDGE('',*,*,#750,.F.);
#1026=ORIENTED_EDGE('',*,*,#751,.T.);
#1027=ORIENTED_EDGE('',*,*,#752,.T.);
#1028=ORIENTED_EDGE('',*,*,#751,.F.);
#1029=ORIENTED_EDGE('',*,*,#749,.F.);
#1030=ORIENTED_EDGE('',*,*,#742,.F.);
#1031=ORIENTED_EDGE('',*,*,#736,.T.);
#1032=ORIENTED_EDGE('',*,*,#741,.F.);
#1033=ORIENTED_EDGE('',*,*,#737,.F.);
#1034=ORIENTED_EDGE('',*,*,#727,.F.);
#1035=ORIENTED_EDGE('',*,*,#720,.T.);
#1036=ORIENTED_EDGE('',*,*,#725,.F.);
#1037=ORIENTED_EDGE('',*,*,#722,.F.);
#1038=ORIENTED_EDGE('',*,*,#732,.F.);
#1039=ORIENTED_EDGE('',*,*,#753,.F.);
#1040=ORIENTED_EDGE('',*,*,#754,.F.);
#1041=ORIENTED_EDGE('',*,*,#748,.T.);
#1042=ORIENTED_EDGE('',*,*,#755,.T.);
#1043=ORIENTED_EDGE('',*,*,#753,.T.);
#1044=ORIENTED_EDGE('',*,*,#731,.T.);
#1045=ORIENTED_EDGE('',*,*,#756,.F.);
#1046=ORIENTED_EDGE('',*,*,#757,.F.);
#1047=ORIENTED_EDGE('',*,*,#758,.T.);
#1048=ORIENTED_EDGE('',*,*,#716,.F.);
#1049=ORIENTED_EDGE('',*,*,#758,.F.);
#1050=ORIENTED_EDGE('',*,*,#759,.F.);
#1051=ORIENTED_EDGE('',*,*,#760,.T.);
#1052=ORIENTED_EDGE('',*,*,#761,.T.);
#1053=ORIENTED_EDGE('',*,*,#762,.T.);
#1054=ORIENTED_EDGE('',*,*,#760,.F.);
#1055=ORIENTED_EDGE('',*,*,#762,.F.);
#1056=ORIENTED_EDGE('',*,*,#763,.T.);
#1057=ORIENTED_EDGE('',*,*,#756,.T.);
#1058=ORIENTED_EDGE('',*,*,#757,.T.);
#1059=ORIENTED_EDGE('',*,*,#763,.F.);
#1060=ORIENTED_EDGE('',*,*,#761,.F.);
#1061=ORIENTED_EDGE('',*,*,#764,.F.);
#1062=ORIENTED_EDGE('',*,*,#765,.T.);
#1063=ORIENTED_EDGE('',*,*,#766,.T.);
#1064=ORIENTED_EDGE('',*,*,#765,.F.);
#1065=ORIENTED_EDGE('',*,*,#767,.T.);
#1066=ORIENTED_EDGE('',*,*,#767,.F.);
#1067=ORIENTED_EDGE('',*,*,#759,.T.);
#1068=ORIENTED_EDGE('',*,*,#766,.F.);
#1069=ORIENTED_EDGE('',*,*,#768,.T.);
#1070=ORIENTED_EDGE('',*,*,#768,.F.);
#1071=ORIENTED_EDGE('',*,*,#769,.T.);
#1072=ORIENTED_EDGE('',*,*,#764,.T.);
#1073=ORIENTED_EDGE('',*,*,#770,.F.);
#1074=ORIENTED_EDGE('',*,*,#771,.T.);
#1075=ORIENTED_EDGE('',*,*,#769,.F.);
#1076=ORIENTED_EDGE('',*,*,#771,.F.);
#1077=ORIENTED_EDGE('',*,*,#772,.F.);
#1078=ORIENTED_EDGE('',*,*,#773,.T.);
#1079=ORIENTED_EDGE('',*,*,#774,.T.);
#1080=ORIENTED_EDGE('',*,*,#773,.F.);
#1081=ORIENTED_EDGE('',*,*,#775,.T.);
#1082=ORIENTED_EDGE('',*,*,#775,.F.);
#1083=ORIENTED_EDGE('',*,*,#770,.T.);
#1084=ORIENTED_EDGE('',*,*,#774,.F.);
#1085=ORIENTED_EDGE('',*,*,#752,.F.);
#1086=ORIENTED_EDGE('',*,*,#776,.F.);
#1087=ORIENTED_EDGE('',*,*,#777,.T.);
#1088=ORIENTED_EDGE('',*,*,#778,.T.);
#1089=ORIENTED_EDGE('',*,*,#777,.F.);
#1090=ORIENTED_EDGE('',*,*,#747,.T.);
#1091=ORIENTED_EDGE('',*,*,#776,.T.);
#1092=ORIENTED_EDGE('',*,*,#754,.T.);
#1093=ORIENTED_EDGE('',*,*,#755,.F.);
#1094=ORIENTED_EDGE('',*,*,#779,.T.);
#1095=ORIENTED_EDGE('',*,*,#779,.F.);
#1096=ORIENTED_EDGE('',*,*,#772,.T.);
#1097=ORIENTED_EDGE('',*,*,#778,.F.);
#1098=PLANE('',#1255);
#1099=PLANE('',#1256);
#1100=PLANE('',#1257);
#1101=PLANE('',#1258);
#1102=PLANE('',#1259);
#1103=PLANE('',#1260);
#1104=PLANE('',#1264);
#1105=PLANE('',#1265);
#1106=PLANE('',#1266);
#1107=PLANE('',#1273);
#1108=PLANE('',#1274);
#1109=PLANE('',#1275);
#1110=PLANE('',#1276);
#1111=PLANE('',#1277);
#1112=PLANE('',#1278);
#1113=PLANE('',#1279);
#1114=PLANE('',#1280);
#1115=PLANE('',#1281);
#1116=PLANE('',#1282);
#1117=PLANE('',#1283);
#1118=PLANE('',#1284);
#1119=PLANE('',#1288);
#1120=PLANE('',#1289);
#1121=PLANE('',#1290);
#1122=PLANE('',#1291);
#1123=PLANE('',#1292);
#1124=PLANE('',#1293);
#1125=PLANE('',#1294);
#1126=PLANE('',#1295);
#1127=PLANE('',#1299);
#1128=PLANE('',#1300);
#1129=PLANE('',#1301);
#1130=PLANE('',#1302);
#1131=PLANE('',#1303);
#1132=PLANE('',#1304);
#1133=PLANE('',#1305);
#1134=PLANE('',#1306);
#1135=PLANE('',#1310);
#1136=PLANE('',#1311);
#1137=PLANE('',#1312);
#1138=PLANE('',#1313);
#1139=PLANE('',#1314);
#1140=PLANE('',#1315);
#1141=PLANE('',#1316);
#1142=PLANE('',#1318);
#1143=PLANE('',#1319);
#1144=PLANE('',#1320);
#1145=PLANE('',#1321);
#1146=PLANE('',#1322);
#1147=PLANE('',#1323);
#1148=PLANE('',#1324);
#1149=PLANE('',#1325);
#1150=PLANE('',#1326);
#1151=PLANE('',#1327);
#1152=PLANE('',#1328);
#1153=PLANE('',#1329);
#1154=PLANE('',#1331);
#1155=PLANE('',#1332);
#1156=PLANE('',#1360);
#1157=ADVANCED_FACE('',(#92),#1098,.T.);
#1158=ADVANCED_FACE('',(#93),#1099,.T.);
#1159=ADVANCED_FACE('',(#94),#1100,.F.);
#1160=ADVANCED_FACE('',(#95),#1101,.T.);
#1161=ADVANCED_FACE('',(#96),#1102,.T.);
#1162=ADVANCED_FACE('',(#97),#1103,.F.);
#1163=ADVANCED_FACE('',(#98),#63,.T.);
#1164=ADVANCED_FACE('',(#99),#1104,.T.);
#1165=ADVANCED_FACE('',(#100),#1105,.F.);
#1166=ADVANCED_FACE('',(#101),#1106,.T.);
#1167=ADVANCED_FACE('',(#102),#64,.T.);
#1168=ADVANCED_FACE('',(#103),#25,.F.);
#1169=ADVANCED_FACE('',(#104),#1107,.T.);
#1170=ADVANCED_FACE('',(#105),#1108,.T.);
#1171=ADVANCED_FACE('',(#106),#1109,.T.);
#1172=ADVANCED_FACE('',(#107),#1110,.T.);
#1173=ADVANCED_FACE('',(#108),#1111,.T.);
#1174=ADVANCED_FACE('',(#109),#1112,.F.);
#1175=ADVANCED_FACE('',(#110),#1113,.T.);
#1176=ADVANCED_FACE('',(#111),#1114,.T.);
#1177=ADVANCED_FACE('',(#112),#1115,.T.);
#1178=ADVANCED_FACE('',(#113),#1116,.T.);
#1179=ADVANCED_FACE('',(#114),#1117,.T.);
#1180=ADVANCED_FACE('',(#115),#1118,.F.);
#1181=ADVANCED_FACE('',(#116),#65,.F.);
#1182=ADVANCED_FACE('',(#117),#1119,.T.);
#1183=ADVANCED_FACE('',(#118),#1120,.T.);
#1184=ADVANCED_FACE('',(#119),#1121,.T.);
#1185=ADVANCED_FACE('',(#120),#1122,.T.);
#1186=ADVANCED_FACE('',(#121),#1123,.T.);
#1187=ADVANCED_FACE('',(#122),#1124,.T.);
#1188=ADVANCED_FACE('',(#123,#13),#1125,.T.);
#1189=ADVANCED_FACE('',(#124,#14),#1126,.F.);
#1190=ADVANCED_FACE('',(#125),#66,.T.);
#1191=ADVANCED_FACE('',(#126),#1127,.T.);
#1192=ADVANCED_FACE('',(#127),#1128,.T.);
#1193=ADVANCED_FACE('',(#128),#1129,.T.);
#1194=ADVANCED_FACE('',(#129),#1130,.T.);
#1195=ADVANCED_FACE('',(#130),#1131,.T.);
#1196=ADVANCED_FACE('',(#131,#15),#1132,.T.);
#1197=ADVANCED_FACE('',(#132),#1133,.F.);
#1198=ADVANCED_FACE('',(#133),#1134,.T.);
#1199=ADVANCED_FACE('',(#134),#67,.T.);
#1200=ADVANCED_FACE('',(#135),#1135,.T.);
#1201=ADVANCED_FACE('',(#136),#1136,.T.);
#1202=ADVANCED_FACE('',(#137),#1137,.T.);
#1203=ADVANCED_FACE('',(#138,#16),#1138,.T.);
#1204=ADVANCED_FACE('',(#139),#1139,.T.);
#1205=ADVANCED_FACE('',(#140),#1140,.F.);
#1206=ADVANCED_FACE('',(#141),#1141,.F.);
#1207=ADVANCED_FACE('',(#142),#1142,.T.);
#1208=ADVANCED_FACE('',(#143),#1143,.T.);
#1209=ADVANCED_FACE('',(#144),#1144,.T.);
#1210=ADVANCED_FACE('',(#145),#1145,.T.);
#1211=ADVANCED_FACE('',(#146),#1146,.T.);
#1212=ADVANCED_FACE('',(#147),#1147,.T.);
#1213=ADVANCED_FACE('',(#148),#1148,.T.);
#1214=ADVANCED_FACE('',(#149),#1149,.T.);
#1215=ADVANCED_FACE('',(#150),#1150,.T.);
#1216=ADVANCED_FACE('',(#151),#1151,.F.);
#1217=ADVANCED_FACE('',(#152),#1152,.T.);
#1218=ADVANCED_FACE('',(#153),#1153,.T.);
#1219=ADVANCED_FACE('',(#154),#1154,.F.);
#1220=ADVANCED_FACE('',(#155),#1155,.T.);
#1221=ADVANCED_FACE('',(#156),#68,.T.);
#1222=ADVANCED_FACE('',(#157),#69,.T.);
#1223=ADVANCED_FACE('',(#158),#26,.T.);
#1224=ADVANCED_FACE('',(#159),#70,.T.);
#1225=ADVANCED_FACE('',(#160,#17,#18),#27,.T.);
#1226=ADVANCED_FACE('',(#161,#19,#20),#28,.T.);
#1227=ADVANCED_FACE('',(#162),#71,.T.);
#1228=ADVANCED_FACE('',(#163),#72,.T.);
#1229=ADVANCED_FACE('',(#164,#21,#22),#29,.T.);
#1230=ADVANCED_FACE('',(#165),#73,.T.);
#1231=ADVANCED_FACE('',(#166),#1156,.T.);
#1232=ADVANCED_FACE('',(#167,#23,#24),#30,.T.);
#1233=CLOSED_SHELL('',(#1157,#1158,#1159,#1160,#1161,#1162));
#1234=CLOSED_SHELL('',(#1163,#1164,#1165));
#1235=CLOSED_SHELL('',(#1166,#1167,#1168));
#1236=CLOSED_SHELL('',(#1169,#1170,#1171,#1172,#1173,#1174));
#1237=CLOSED_SHELL('',(#1175,#1176,#1177,#1178,#1179,#1180));
#1238=CLOSED_SHELL('',(#1181,#1182,#1183,#1184,#1185,#1186,#1187,#1188,
#1189));
#1239=CLOSED_SHELL('',(#1190,#1191,#1192,#1193,#1194,#1195,#1196,#1197));
#1240=CLOSED_SHELL('',(#1198,#1199,#1200,#1201,#1202,#1203,#1204,#1205));
#1241=CLOSED_SHELL('',(#1206,#1207,#1208,#1209,#1210,#1211,#1212,#1213,
#1214,#1215,#1216,#1217,#1218,#1219,#1220,#1221,#1222,#1223,#1224,#1225,
#1226,#1227,#1228,#1229,#1230,#1231,#1232));
#1242=DERIVED_UNIT_ELEMENT(#1244,1.);
#1243=DERIVED_UNIT_ELEMENT(#2060,-3.);
#1244=(
MASS_UNIT()
NAMED_UNIT(*)
SI_UNIT(.KILO.,.GRAM.)
);
#1245=DERIVED_UNIT((#1242,#1243));
#1246=MEASURE_REPRESENTATION_ITEM('density measure',
POSITIVE_RATIO_MEASURE(7850.),#1245);
#1247=PROPERTY_DEFINITION_REPRESENTATION(#1252,#1249);
#1248=PROPERTY_DEFINITION_REPRESENTATION(#1253,#1250);
#1249=REPRESENTATION('material name',(#1251),#2057);
#1250=REPRESENTATION('density',(#1246),#2057);
#1251=DESCRIPTIVE_REPRESENTATION_ITEM('Steel','Steel');
#1252=PROPERTY_DEFINITION('material property','material name',#2067);
#1253=PROPERTY_DEFINITION('material property','density of part',#2067);
#1254=AXIS2_PLACEMENT_3D('',#1708,#1363,#1364);
#1255=AXIS2_PLACEMENT_3D('',#1709,#1365,#1366);
#1256=AXIS2_PLACEMENT_3D('',#1718,#1371,#1372);
#1257=AXIS2_PLACEMENT_3D('',#1724,#1376,#1377);
#1258=AXIS2_PLACEMENT_3D('',#1728,#1380,#1381);
#1259=AXIS2_PLACEMENT_3D('',#1732,#1384,#1385);
#1260=AXIS2_PLACEMENT_3D('',#1734,#1387,#1388);
#1261=AXIS2_PLACEMENT_3D('',#1735,#1389,#1390);
#1262=AXIS2_PLACEMENT_3D('',#1737,#1391,#1392);
#1263=AXIS2_PLACEMENT_3D('',#1740,#1394,#1395);
#1264=AXIS2_PLACEMENT_3D('',#1741,#1396,#1397);
#1265=AXIS2_PLACEMENT_3D('',#1742,#1398,#1399);
#1266=AXIS2_PLACEMENT_3D('',#1743,#1400,#1401);
#1267=AXIS2_PLACEMENT_3D('',#1745,#1402,#1403);
#1268=AXIS2_PLACEMENT_3D('',#1746,#1404,#1405);
#1269=AXIS2_PLACEMENT_3D('',#1749,#1406,#1407);
#1270=AXIS2_PLACEMENT_3D('',#1750,#1408,#1409);
#1271=AXIS2_PLACEMENT_3D('',#1752,#1411,#1412);
#1272=AXIS2_PLACEMENT_3D('',#1754,#1413,#1414);
#1273=AXIS2_PLACEMENT_3D('',#1755,#1415,#1416);
#1274=AXIS2_PLACEMENT_3D('',#1764,#1421,#1422);
#1275=AXIS2_PLACEMENT_3D('',#1770,#1426,#1427);
#1276=AXIS2_PLACEMENT_3D('',#1776,#1431,#1432);
#1277=AXIS2_PLACEMENT_3D('',#1779,#1435,#1436);
#1278=AXIS2_PLACEMENT_3D('',#1780,#1437,#1438);
#1279=AXIS2_PLACEMENT_3D('',#1781,#1439,#1440);
#1280=AXIS2_PLACEMENT_3D('',#1790,#1445,#1446);
#1281=AXIS2_PLACEMENT_3D('',#1796,#1450,#1451);
#1282=AXIS2_PLACEMENT_3D('',#1802,#1455,#1456);
#1283=AXIS2_PLACEMENT_3D('',#1805,#1459,#1460);
#1284=AXIS2_PLACEMENT_3D('',#1806,#1461,#1462);
#1285=AXIS2_PLACEMENT_3D('',#1807,#1463,#1464);
#1286=AXIS2_PLACEMENT_3D('',#1809,#1465,#1466);
#1287=AXIS2_PLACEMENT_3D('',#1812,#1468,#1469);
#1288=AXIS2_PLACEMENT_3D('',#1813,#1470,#1471);
#1289=AXIS2_PLACEMENT_3D('',#1822,#1476,#1477);
#1290=AXIS2_PLACEMENT_3D('',#1828,#1481,#1482);
#1291=AXIS2_PLACEMENT_3D('',#1834,#1486,#1487);
#1292=AXIS2_PLACEMENT_3D('',#1840,#1491,#1492);
#1293=AXIS2_PLACEMENT_3D('',#1846,#1496,#1497);
#1294=AXIS2_PLACEMENT_3D('',#1849,#1500,#1501);
#1295=AXIS2_PLACEMENT_3D('',#1850,#1502,#1503);
#1296=AXIS2_PLACEMENT_3D('',#1851,#1504,#1505);
#1297=AXIS2_PLACEMENT_3D('',#1853,#1506,#1507);
#1298=AXIS2_PLACEMENT_3D('',#1856,#1509,#1510);
#1299=AXIS2_PLACEMENT_3D('',#1857,#1511,#1512);
#1300=AXIS2_PLACEMENT_3D('',#1858,#1513,#1514);
#1301=AXIS2_PLACEMENT_3D('',#1867,#1519,#1520);
#1302=AXIS2_PLACEMENT_3D('',#1873,#1524,#1525);
#1303=AXIS2_PLACEMENT_3D('',#1879,#1529,#1530);
#1304=AXIS2_PLACEMENT_3D('',#1882,#1533,#1534);
#1305=AXIS2_PLACEMENT_3D('',#1883,#1535,#1536);
#1306=AXIS2_PLACEMENT_3D('',#1884,#1537,#1538);
#1307=AXIS2_PLACEMENT_3D('',#1893,#1543,#1544);
#1308=AXIS2_PLACEMENT_3D('',#1895,#1545,#1546);
#1309=AXIS2_PLACEMENT_3D('',#1898,#1548,#1549);
#1310=AXIS2_PLACEMENT_3D('',#1899,#1550,#1551);
#1311=AXIS2_PLACEMENT_3D('',#1900,#1552,#1553);
#1312=AXIS2_PLACEMENT_3D('',#1906,#1557,#1558);
#1313=AXIS2_PLACEMENT_3D('',#1910,#1561,#1562);
#1314=AXIS2_PLACEMENT_3D('',#1914,#1565,#1566);
#1315=AXIS2_PLACEMENT_3D('',#1916,#1568,#1569);
#1316=AXIS2_PLACEMENT_3D('',#1917,#1570,#1571);
#1317=AXIS2_PLACEMENT_3D('',#1919,#1572,#1573);
#1318=AXIS2_PLACEMENT_3D('',#1920,#1574,#1575);
#1319=AXIS2_PLACEMENT_3D('',#1929,#1580,#1581);
#1320=AXIS2_PLACEMENT_3D('',#1938,#1586,#1587);
#1321=AXIS2_PLACEMENT_3D('',#1941,#1590,#1591);
#1322=AXIS2_PLACEMENT_3D('',#1947,#1595,#1596);
#1323=AXIS2_PLACEMENT_3D('',#1953,#1600,#1601);
#1324=AXIS2_PLACEMENT_3D('',#1962,#1606,#1607);
#1325=AXIS2_PLACEMENT_3D('',#1968,#1611,#1612);
#1326=AXIS2_PLACEMENT_3D('',#1971,#1615,#1616);
#1327=AXIS2_PLACEMENT_3D('',#1977,#1620,#1621);
#1328=AXIS2_PLACEMENT_3D('',#1985,#1626,#1627);
#1329=AXIS2_PLACEMENT_3D('',#1989,#1630,#1631);
#1330=AXIS2_PLACEMENT_3D('',#1992,#1633,#1634);
#1331=AXIS2_PLACEMENT_3D('',#1993,#1635,#1636);
#1332=AXIS2_PLACEMENT_3D('',#1997,#1639,#1640);
#1333=AXIS2_PLACEMENT_3D('',#1999,#1642,#1643);
#1334=AXIS2_PLACEMENT_3D('',#2002,#1644,#1645);
#1335=AXIS2_PLACEMENT_3D('',#2003,#1646,#1647);
#1336=AXIS2_PLACEMENT_3D('',#2005,#1649,#1650);
#1337=AXIS2_PLACEMENT_3D('',#2007,#1651,#1652);
#1338=AXIS2_PLACEMENT_3D('',#2011,#1654,#1655);
#1339=AXIS2_PLACEMENT_3D('',#2012,#1656,#1657);
#1340=AXIS2_PLACEMENT_3D('',#2013,#1658,#1659);
#1341=AXIS2_PLACEMENT_3D('',#2014,#1660,#1661);
#1342=AXIS2_PLACEMENT_3D('',#2015,#1662,#1663);
#1343=AXIS2_PLACEMENT_3D('',#2017,#1664,#1665);
#1344=AXIS2_PLACEMENT_3D('',#2020,#1667,#1668);
#1345=AXIS2_PLACEMENT_3D('',#2021,#1669,#1670);
#1346=AXIS2_PLACEMENT_3D('',#2024,#1671,#1672);
#1347=AXIS2_PLACEMENT_3D('',#2025,#1673,#1674);
#1348=AXIS2_PLACEMENT_3D('',#2028,#1675,#1676);
#1349=AXIS2_PLACEMENT_3D('',#2030,#1677,#1678);
#1350=AXIS2_PLACEMENT_3D('',#2031,#1679,#1680);
#1351=AXIS2_PLACEMENT_3D('',#2033,#1681,#1682);
#1352=AXIS2_PLACEMENT_3D('',#2035,#1684,#1685);
#1353=AXIS2_PLACEMENT_3D('',#2037,#1686,#1687);
#1354=AXIS2_PLACEMENT_3D('',#2040,#1689,#1690);
#1355=AXIS2_PLACEMENT_3D('',#2041,#1691,#1692);
#1356=AXIS2_PLACEMENT_3D('',#2044,#1693,#1694);
#1357=AXIS2_PLACEMENT_3D('',#2045,#1695,#1696);
#1358=AXIS2_PLACEMENT_3D('',#2046,#1697,#1698);
#1359=AXIS2_PLACEMENT_3D('',#2049,#1700,#1701);
#1360=AXIS2_PLACEMENT_3D('',#2050,#1702,#1703);
#1361=AXIS2_PLACEMENT_3D('',#2051,#1704,#1705);
#1362=AXIS2_PLACEMENT_3D('',#2054,#1706,#1707);
#1363=DIRECTION('axis',(0.,0.,1.));
#1364=DIRECTION('refdir',(1.,0.,0.));
#1365=DIRECTION('center_axis',(0.,-1.,0.));
#1366=DIRECTION('ref_axis',(0.,0.,-1.));
#1367=DIRECTION('',(0.,0.,1.));
#1368=DIRECTION('',(-1.,0.,0.));
#1369=DIRECTION('',(0.,0.,-1.));
#1370=DIRECTION('',(1.,0.,0.));
#1371=DIRECTION('center_axis',(-1.,0.,0.));
#1372=DIRECTION('ref_axis',(0.,-1.,0.));
#1373=DIRECTION('',(0.,-1.,0.));
#1374=DIRECTION('',(0.,0.,1.));
#1375=DIRECTION('',(0.,-1.,0.));
#1376=DIRECTION('center_axis',(0.,0.,1.));
#1377=DIRECTION('ref_axis',(1.,0.,0.));
#1378=DIRECTION('',(0.,-1.,0.));
#1379=DIRECTION('',(-1.,0.,0.));
#1380=DIRECTION('center_axis',(0.,1.,0.));
#1381=DIRECTION('ref_axis',(0.,0.,1.));
#1382=DIRECTION('',(0.,0.,-1.));
#1383=DIRECTION('',(1.,0.,0.));
#1384=DIRECTION('center_axis',(0.,0.,1.));
#1385=DIRECTION('ref_axis',(1.,0.,0.));
#1386=DIRECTION('',(0.,1.,0.));
#1387=DIRECTION('center_axis',(-1.,0.,0.));
#1388=DIRECTION('ref_axis',(0.,0.,1.));
#1389=DIRECTION('center_axis',(0.,0.,1.));
#1390=DIRECTION('ref_axis',(-1.,0.,0.));
#1391=DIRECTION('center_axis',(0.,0.,1.));
#1392=DIRECTION('ref_axis',(-1.,0.,0.));
#1393=DIRECTION('',(0.,0.,-1.));
#1394=DIRECTION('center_axis',(0.,0.,1.));
#1395=DIRECTION('ref_axis',(-1.,0.,0.));
#1396=DIRECTION('center_axis',(0.,0.,1.));
#1397=DIRECTION('ref_axis',(-1.,0.,0.));
#1398=DIRECTION('center_axis',(0.,0.,1.));
#1399=DIRECTION('ref_axis',(-1.,0.,0.));
#1400=DIRECTION('center_axis',(1.77635683940025E-16,0.,-1.));
#1401=DIRECTION('ref_axis',(-1.,0.,-1.77635683940025E-16));
#1402=DIRECTION('center_axis',(-1.77635683940025E-16,0.,1.));
#1403=DIRECTION('ref_axis',(1.,0.,1.77635683940025E-16));
#1404=DIRECTION('center_axis',(-1.77635683940025E-16,0.,1.));
#1405=DIRECTION('ref_axis',(-1.,0.,0.));
#1406=DIRECTION('center_axis',(-1.77635683940025E-16,0.,1.));
#1407=DIRECTION('ref_axis',(1.,0.,1.77635683940025E-16));
#1408=DIRECTION('center_axis',(-1.77635683940025E-16,0.,1.));
#1409=DIRECTION('ref_axis',(1.,0.,1.77635683940025E-16));
#1410=DIRECTION('',(1.77635683940025E-16,0.,-1.));
#1411=DIRECTION('center_axis',(0.,0.,1.));
#1412=DIRECTION('ref_axis',(1.,0.,0.));
#1413=DIRECTION('center_axis',(0.,-1.,0.));
#1414=DIRECTION('ref_axis',(-1.,0.,0.));
#1415=DIRECTION('center_axis',(-1.,0.,0.));
#1416=DIRECTION('ref_axis',(0.,-1.,0.));
#1417=DIRECTION('',(0.,1.,0.));
#1418=DIRECTION('',(0.,0.,1.));
#1419=DIRECTION('',(0.,-1.,0.));
#1420=DIRECTION('',(0.,0.,1.));
#1421=DIRECTION('center_axis',(0.,1.,0.));
#1422=DIRECTION('ref_axis',(-1.,0.,0.));
#1423=DIRECTION('',(1.,0.,0.));
#1424=DIRECTION('',(-1.,0.,0.));
#1425=DIRECTION('',(0.,0.,1.));
#1426=DIRECTION('center_axis',(1.,0.,0.));
#1427=DIRECTION('ref_axis',(0.,1.,0.));
#1428=DIRECTION('',(0.,-1.,0.));
#1429=DIRECTION('',(0.,1.,0.));
#1430=DIRECTION('',(0.,0.,1.));
#1431=DIRECTION('center_axis',(0.,-1.,0.));
#1432=DIRECTION('ref_axis',(1.,0.,0.));
#1433=DIRECTION('',(-1.,0.,0.));
#1434=DIRECTION('',(1.,0.,0.));
#1435=DIRECTION('center_axis',(0.,0.,1.));
#1436=DIRECTION('ref_axis',(1.,0.,0.));
#1437=DIRECTION('center_axis',(0.,0.,1.));
#1438=DIRECTION('ref_axis',(-1.,0.,0.));
#1439=DIRECTION('center_axis',(-1.,0.,0.));
#1440=DIRECTION('ref_axis',(0.,-1.,0.));
#1441=DIRECTION('',(0.,1.,0.));
#1442=DIRECTION('',(0.,0.,1.));
#1443=DIRECTION('',(0.,-1.,0.));
#1444=DIRECTION('',(0.,0.,1.));
#1445=DIRECTION('center_axis',(0.,1.,0.));
#1446=DIRECTION('ref_axis',(-1.,0.,0.));
#1447=DIRECTION('',(1.,0.,0.));
#1448=DIRECTION('',(-1.,0.,0.));
#1449=DIRECTION('',(0.,0.,1.));
#1450=DIRECTION('center_axis',(1.,0.,0.));
#1451=DIRECTION('ref_axis',(0.,1.,0.));
#1452=DIRECTION('',(0.,-1.,0.));
#1453=DIRECTION('',(0.,1.,0.));
#1454=DIRECTION('',(0.,0.,1.));
#1455=DIRECTION('center_axis',(0.,-1.,0.));
#1456=DIRECTION('ref_axis',(1.,0.,0.));
#1457=DIRECTION('',(-1.,0.,0.));
#1458=DIRECTION('',(1.,0.,0.));
#1459=DIRECTION('center_axis',(0.,0.,1.));
#1460=DIRECTION('ref_axis',(1.,0.,0.));
#1461=DIRECTION('center_axis',(0.,0.,1.));
#1462=DIRECTION('ref_axis',(-1.,0.,0.));
#1463=DIRECTION('center_axis',(0.,0.,1.));
#1464=DIRECTION('ref_axis',(-1.,0.,0.));
#1465=DIRECTION('center_axis',(0.,0.,-1.));
#1466=DIRECTION('ref_axis',(-1.,0.,0.));
#1467=DIRECTION('',(0.,0.,-1.));
#1468=DIRECTION('center_axis',(0.,0.,-1.));
#1469=DIRECTION('ref_axis',(-1.,0.,0.));
#1470=DIRECTION('center_axis',(0.00325403141670331,-0.999994705625754,0.));
#1471=DIRECTION('ref_axis',(0.999994705625754,0.00325403141670331,0.));
#1472=DIRECTION('',(0.999994705625754,0.00325403141670331,0.));
#1473=DIRECTION('',(0.,0.,1.));
#1474=DIRECTION('',(0.999994705625754,0.00325403141670331,0.));
#1475=DIRECTION('',(0.,0.,1.));
#1476=DIRECTION('center_axis',(-0.864393803013493,-0.502815426684455,0.));
#1477=DIRECTION('ref_axis',(0.502815426684455,-0.864393803013493,0.));
#1478=DIRECTION('',(0.502815426684455,-0.864393803013493,0.));
#1479=DIRECTION('',(0.502815426684455,-0.864393803013493,0.));
#1480=DIRECTION('',(0.,0.,1.));
#1481=DIRECTION('center_axis',(-0.867647834430196,0.497179278941301,0.));
#1482=DIRECTION('ref_axis',(-0.497179278941301,-0.867647834430196,0.));
#1483=DIRECTION('',(-0.497179278941301,-0.867647834430196,0.));
#1484=DIRECTION('',(-0.497179278941301,-0.867647834430196,0.));
#1485=DIRECTION('',(0.,0.,1.));
#1486=DIRECTION('center_axis',(-0.00325403141670331,0.999994705625754,0.));
#1487=DIRECTION('ref_axis',(-0.999994705625754,-0.00325403141670331,0.));
#1488=DIRECTION('',(-0.999994705625754,-0.00325403141670331,0.));
#1489=DIRECTION('',(-0.999994705625754,-0.00325403141670331,0.));
#1490=DIRECTION('',(0.,0.,1.));
#1491=DIRECTION('center_axis',(0.864393803013494,0.502815426684453,0.));
#1492=DIRECTION('ref_axis',(-0.502815426684453,0.864393803013494,0.));
#1493=DIRECTION('',(-0.502815426684453,0.864393803013494,0.));
#1494=DIRECTION('',(-0.502815426684453,0.864393803013494,0.));
#1495=DIRECTION('',(0.,0.,1.));
#1496=DIRECTION('center_axis',(0.867647834430195,-0.497179278941302,0.));
#1497=DIRECTION('ref_axis',(0.497179278941302,0.867647834430195,0.));
#1498=DIRECTION('',(0.497179278941302,0.867647834430195,0.));
#1499=DIRECTION('',(0.497179278941302,0.867647834430195,0.));
#1500=DIRECTION('center_axis',(0.,0.,1.));
#1501=DIRECTION('ref_axis',(-1.,0.,0.));
#1502=DIRECTION('center_axis',(0.,0.,1.));
#1503=DIRECTION('ref_axis',(-1.,0.,0.));
#1504=DIRECTION('center_axis',(0.,0.,1.));
#1505=DIRECTION('ref_axis',(-1.,0.,0.));
#1506=DIRECTION('center_axis',(0.,0.,1.));
#1507=DIRECTION('ref_axis',(-1.,0.,0.));
#1508=DIRECTION('',(0.,0.,-1.));
#1509=DIRECTION('center_axis',(0.,0.,-1.));
#1510=DIRECTION('ref_axis',(-1.,0.,0.));
#1511=DIRECTION('center_axis',(0.,0.,1.));
#1512=DIRECTION('ref_axis',(-1.,0.,0.));
#1513=DIRECTION('center_axis',(-1.,0.,0.));
#1514=DIRECTION('ref_axis',(0.,-1.,0.));
#1515=DIRECTION('',(0.,1.,0.));
#1516=DIRECTION('',(0.,0.,1.));
#1517=DIRECTION('',(0.,-1.,0.));
#1518=DIRECTION('',(0.,0.,1.));
#1519=DIRECTION('center_axis',(0.,1.,0.));
#1520=DIRECTION('ref_axis',(-1.,0.,0.));
#1521=DIRECTION('',(1.,0.,0.));
#1522=DIRECTION('',(-1.,0.,0.));
#1523=DIRECTION('',(0.,0.,1.));
#1524=DIRECTION('center_axis',(1.,0.,0.));
#1525=DIRECTION('ref_axis',(0.,1.,0.));
#1526=DIRECTION('',(0.,-1.,0.));
#1527=DIRECTION('',(0.,1.,0.));
#1528=DIRECTION('',(0.,0.,1.));
#1529=DIRECTION('center_axis',(0.,-1.,0.));
#1530=DIRECTION('ref_axis',(1.,0.,0.));
#1531=DIRECTION('',(-1.,0.,0.));
#1532=DIRECTION('',(1.,0.,0.));
#1533=DIRECTION('center_axis',(0.,0.,1.));
#1534=DIRECTION('ref_axis',(1.,0.,0.));
#1535=DIRECTION('center_axis',(0.,0.,1.));
#1536=DIRECTION('ref_axis',(-1.,0.,0.));
#1537=DIRECTION('center_axis',(1.,0.,0.));
#1538=DIRECTION('ref_axis',(0.,0.,-1.));
#1539=DIRECTION('',(0.,0.,-1.));
#1540=DIRECTION('',(0.,1.,0.));
#1541=DIRECTION('',(0.,0.,1.));
#1542=DIRECTION('',(0.,-1.,0.));
#1543=DIRECTION('center_axis',(0.,0.,-1.));
#1544=DIRECTION('ref_axis',(1.,0.,0.));
#1545=DIRECTION('center_axis',(0.,0.,-1.));
#1546=DIRECTION('ref_axis',(1.,0.,0.));
#1547=DIRECTION('',(0.,0.,1.));
#1548=DIRECTION('center_axis',(0.,0.,1.));
#1549=DIRECTION('ref_axis',(1.,0.,0.));
#1550=DIRECTION('center_axis',(0.,0.,-1.));
#1551=DIRECTION('ref_axis',(1.,0.,0.));
#1552=DIRECTION('center_axis',(0.,0.,1.));
#1553=DIRECTION('ref_axis',(0.,-1.,0.));
#1554=DIRECTION('',(0.,-1.,0.));
#1555=DIRECTION('',(1.,0.,0.));
#1556=DIRECTION('',(1.,0.,0.));
#1557=DIRECTION('center_axis',(0.,1.,0.));
#1558=DIRECTION('ref_axis',(0.,0.,1.));
#1559=DIRECTION('',(0.,0.,1.));
#1560=DIRECTION('',(1.,0.,0.));
#1561=DIRECTION('center_axis',(0.,0.,-1.));
#1562=DIRECTION('ref_axis',(0.,1.,0.));
#1563=DIRECTION('',(1.,0.,0.));
#1564=DIRECTION('',(0.,1.,0.));
#1565=DIRECTION('center_axis',(0.,-1.,0.));
#1566=DIRECTION('ref_axis',(0.,0.,-1.));
#1567=DIRECTION('',(0.,0.,-1.));
#1568=DIRECTION('center_axis',(1.,0.,0.));
#1569=DIRECTION('ref_axis',(0.,1.,0.));
#1570=DIRECTION('center_axis',(0.,0.,1.));
#1571=DIRECTION('ref_axis',(1.,0.,0.));
#1572=DIRECTION('center_axis',(0.,0.,-1.));
#1573=DIRECTION('ref_axis',(-1.,0.,0.));
#1574=DIRECTION('center_axis',(0.,-1.,0.));
#1575=DIRECTION('ref_axis',(-1.,0.,0.));
#1576=DIRECTION('',(1.,0.,8.88178419700125E-16));
#1577=DIRECTION('',(0.,0.,-1.));
#1578=DIRECTION('',(-1.,0.,0.));
#1579=DIRECTION('',(0.,0.,-1.));
#1580=DIRECTION('center_axis',(0.,1.,0.));
#1581=DIRECTION('ref_axis',(1.,0.,0.));
#1582=DIRECTION('',(-1.,0.,-8.88178419700125E-16));
#1583=DIRECTION('',(0.,0.,-1.));
#1584=DIRECTION('',(1.,0.,0.));
#1585=DIRECTION('',(0.,0.,-1.));
#1586=DIRECTION('center_axis',(0.,0.,-1.));
#1587=DIRECTION('ref_axis',(-1.,0.,0.));
#1588=DIRECTION('',(0.,-1.,0.));
#1589=DIRECTION('',(0.,1.,0.));
#1590=DIRECTION('center_axis',(8.88178419700125E-16,0.,-1.));
#1591=DIRECTION('ref_axis',(1.,0.,8.88178419700125E-16));
#1592=DIRECTION('',(0.,-1.,0.));
#1593=DIRECTION('',(-1.,0.,-8.88178419700125E-16));
#1594=DIRECTION('',(0.,1.,0.));
#1595=DIRECTION('center_axis',(8.88178419700125E-16,0.,-1.));
#1596=DIRECTION('ref_axis',(1.,0.,8.88178419700125E-16));
#1597=DIRECTION('',(0.,1.,0.));
#1598=DIRECTION('',(-1.,0.,-8.88178419700125E-16));
#1599=DIRECTION('',(0.,-1.,0.));
#1600=DIRECTION('center_axis',(0.,-1.,0.));
#1601=DIRECTION('ref_axis',(-1.,0.,0.));
#1602=DIRECTION('',(1.,0.,8.88178419700125E-16));
#1603=DIRECTION('',(0.,0.,-1.));
#1604=DIRECTION('',(-1.,0.,0.));
#1605=DIRECTION('',(0.,0.,-1.));
#1606=DIRECTION('center_axis',(0.,1.,0.));
#1607=DIRECTION('ref_axis',(1.,0.,0.));
#1608=DIRECTION('',(0.,0.,-1.));
#1609=DIRECTION('',(1.,0.,0.));
#1610=DIRECTION('',(0.,0.,-1.));
#1611=DIRECTION('center_axis',(0.,0.,-1.));
#1612=DIRECTION('ref_axis',(-1.,0.,0.));
#1613=DIRECTION('',(0.,1.,0.));
#1614=DIRECTION('',(0.,-1.,0.));
#1615=DIRECTION('center_axis',(8.88178419700125E-16,0.,-1.));
#1616=DIRECTION('ref_axis',(1.,0.,8.88178419700125E-16));
#1617=DIRECTION('',(0.,-1.,0.));
#1618=DIRECTION('',(1.,0.,8.88178419700125E-16));
#1619=DIRECTION('',(0.,1.,0.));
#1620=DIRECTION('center_axis',(1.,0.,0.));
#1621=DIRECTION('ref_axis',(0.,0.,-1.));
#1622=DIRECTION('',(0.,0.,-1.));
#1623=DIRECTION('',(0.,-1.,0.));
#1624=DIRECTION('',(0.,-1.,0.));
#1625=DIRECTION('',(0.,0.,1.));
#1626=DIRECTION('center_axis',(0.,-1.,0.));
#1627=DIRECTION('ref_axis',(0.,0.,-1.));
#1628=DIRECTION('',(-7.105427357601E-15,0.,1.));
#1629=DIRECTION('',(-1.,0.,1.77635683940026E-15));
#1630=DIRECTION('center_axis',(1.77635683940026E-15,0.,1.));
#1631=DIRECTION('ref_axis',(-1.,0.,1.77635683940026E-15));
#1632=DIRECTION('',(0.,1.,0.));
#1633=DIRECTION('center_axis',(0.,0.,-1.));
#1634=DIRECTION('ref_axis',(1.,0.,0.));
#1635=DIRECTION('center_axis',(-1.,0.,-7.105427357601E-15));
#1636=DIRECTION('ref_axis',(-7.105427357601E-15,0.,1.));
#1637=DIRECTION('',(7.105427357601E-15,0.,-1.));
#1638=DIRECTION('',(0.,1.,0.));
#1639=DIRECTION('center_axis',(0.,1.,0.));
#1640=DIRECTION('ref_axis',(0.,0.,1.));
#1641=DIRECTION('',(1.,0.,-1.77635683940026E-15));
#1642=DIRECTION('center_axis',(-1.77635683940025E-16,0.,1.));
#1643=DIRECTION('ref_axis',(-1.,0.,0.));
#1644=DIRECTION('center_axis',(-1.77635683940025E-16,0.,1.));
#1645=DIRECTION('ref_axis',(1.,0.,1.77635683940025E-16));
#1646=DIRECTION('center_axis',(-1.77635683940025E-16,0.,1.));
#1647=DIRECTION('ref_axis',(1.,0.,1.77635683940025E-16));
#1648=DIRECTION('',(1.77635683940025E-16,0.,-1.));
#1649=DIRECTION('center_axis',(0.17364817766693,0.,0.984807753012208));
#1650=DIRECTION('ref_axis',(-0.984807753012208,0.,0.17364817766693));
#1651=DIRECTION('center_axis',(0.17364817766693,0.,0.984807753012208));
#1652=DIRECTION('ref_axis',(0.984807753012208,0.,-0.17364817766693));
#1653=DIRECTION('',(-0.17364817766693,0.,-0.984807753012208));
#1654=DIRECTION('center_axis',(0.17364817766693,0.,0.984807753012208));
#1655=DIRECTION('ref_axis',(0.984807753012208,0.,-0.17364817766693));
#1656=DIRECTION('center_axis',(0.17364817766693,0.,0.984807753012208));
#1657=DIRECTION('ref_axis',(0.984807753012208,0.,-0.17364817766693));
#1658=DIRECTION('center_axis',(0.,0.,1.));
#1659=DIRECTION('ref_axis',(1.,0.,0.));
#1660=DIRECTION('center_axis',(0.,-1.,0.));
#1661=DIRECTION('ref_axis',(-1.,0.,0.));
#1662=DIRECTION('center_axis',(0.573576436351047,0.,0.819152044288991));
#1663=DIRECTION('ref_axis',(-0.819152044288992,0.,0.573576436351046));
#1664=DIRECTION('center_axis',(0.573576436351047,0.,0.819152044288991));
#1665=DIRECTION('ref_axis',(0.819152044288991,0.,-0.573576436351047));
#1666=DIRECTION('',(-0.573576436351047,0.,-0.819152044288991));
#1667=DIRECTION('center_axis',(0.573576436351047,0.,0.819152044288991));
#1668=DIRECTION('ref_axis',(0.819152044288991,0.,-0.573576436351047));
#1669=DIRECTION('center_axis',(0.,1.,0.));
#1670=DIRECTION('ref_axis',(0.,0.,-1.));
#1671=DIRECTION('center_axis',(1.,0.,0.));
#1672=DIRECTION('ref_axis',(0.,0.,1.));
#1673=DIRECTION('center_axis',(0.,1.,0.));
#1674=DIRECTION('ref_axis',(0.,0.,-1.));
#1675=DIRECTION('center_axis',(1.,0.,0.));
#1676=DIRECTION('ref_axis',(0.,0.,1.));
#1677=DIRECTION('center_axis',(-0.996194698091746,0.,-0.0871557427476596));
#1678=DIRECTION('ref_axis',(-0.0871557427476585,0.,0.996194698091745));
#1679=DIRECTION('center_axis',(0.996194698091746,0.,0.0871557427476596));
#1680=DIRECTION('ref_axis',(-0.0871557427476612,0.,0.996194698091745));
#1681=DIRECTION('center_axis',(0.996194698091746,0.,0.0871557427476596));
#1682=DIRECTION('ref_axis',(0.0871557427476596,0.,-0.996194698091745));
#1683=DIRECTION('',(-0.996194698091745,0.,-0.0871557427476596));
#1684=DIRECTION('center_axis',(0.70710678118655,0.,-0.707106781186545));
#1685=DIRECTION('ref_axis',(0.707106781186545,0.,0.70710678118655));
#1686=DIRECTION('center_axis',(0.70710678118655,0.,-0.707106781186545));
#1687=DIRECTION('ref_axis',(0.707106781186545,0.,0.70710678118655));
#1688=DIRECTION('',(-0.70710678118655,0.,0.707106781186545));
#1689=DIRECTION('center_axis',(0.70710678118655,0.,-0.707106781186545));
#1690=DIRECTION('ref_axis',(0.707106781186545,0.,0.70710678118655));
#1691=DIRECTION('center_axis',(0.,1.,0.));
#1692=DIRECTION('ref_axis',(0.,0.,-1.));
#1693=DIRECTION('center_axis',(1.,0.,0.));
#1694=DIRECTION('ref_axis',(0.,0.,1.));
#1695=DIRECTION('center_axis',(0.,0.,-1.));
#1696=DIRECTION('ref_axis',(1.,0.,0.));
#1697=DIRECTION('center_axis',(0.,0.,-1.));
#1698=DIRECTION('ref_axis',(1.,0.,0.));
#1699=DIRECTION('',(0.,0.,1.));
#1700=DIRECTION('center_axis',(0.,0.,-1.));
#1701=DIRECTION('ref_axis',(1.,0.,0.));
#1702=DIRECTION('center_axis',(1.77635683940026E-15,0.,1.));
#1703=DIRECTION('ref_axis',(-1.,0.,1.77635683940026E-15));
#1704=DIRECTION('center_axis',(0.,1.,0.));
#1705=DIRECTION('ref_axis',(0.,0.,-1.));
#1706=DIRECTION('center_axis',(1.,0.,0.));
#1707=DIRECTION('ref_axis',(0.,0.,1.));
#1708=CARTESIAN_POINT('',(0.,0.,0.));
#1709=CARTESIAN_POINT('Origin',(225.,50.,167.055777002443));
#1710=CARTESIAN_POINT('',(400.,50.,0.));
#1711=CARTESIAN_POINT('',(400.,50.,20.));
#1712=CARTESIAN_POINT('',(400.,50.,167.055777002443));
#1713=CARTESIAN_POINT('',(0.,50.,20.));
#1714=CARTESIAN_POINT('',(237.5,50.,20.));
#1715=CARTESIAN_POINT('',(0.,50.,0.));
#1716=CARTESIAN_POINT('',(0.,50.,83.5278885012215));
#1717=CARTESIAN_POINT('',(237.5,50.,0.));
#1718=CARTESIAN_POINT('Origin',(0.,500.,0.));
#1719=CARTESIAN_POINT('',(0.,450.,20.));
#1720=CARTESIAN_POINT('',(0.,500.,20.));
#1721=CARTESIAN_POINT('',(0.,450.,0.));
#1722=CARTESIAN_POINT('',(0.,450.,83.5278885012215));
#1723=CARTESIAN_POINT('',(0.,500.,0.));
#1724=CARTESIAN_POINT('Origin',(250.,250.,0.));
#1725=CARTESIAN_POINT('',(400.,450.,0.));
#1726=CARTESIAN_POINT('',(400.,237.5,0.));
#1727=CARTESIAN_POINT('',(250.,450.,0.));
#1728=CARTESIAN_POINT('Origin',(250.,450.,167.055777002443));
#1729=CARTESIAN_POINT('',(400.,450.,20.));
#1730=CARTESIAN_POINT('',(400.,450.,167.055777002443));
#1731=CARTESIAN_POINT('',(250.,450.,20.));
#1732=CARTESIAN_POINT('Origin',(250.,250.,20.));
#1733=CARTESIAN_POINT('',(400.,237.5,20.));
#1734=CARTESIAN_POINT('Origin',(400.,225.,167.055777002443));
#1735=CARTESIAN_POINT('Origin',(50.,250.,20.));
#1736=CARTESIAN_POINT('',(87.5,250.,50.));
#1737=CARTESIAN_POINT('Origin',(50.,250.,50.));
#1738=CARTESIAN_POINT('',(87.5,250.,20.));
#1739=CARTESIAN_POINT('',(87.5,250.,20.));
#1740=CARTESIAN_POINT('Origin',(50.,250.,20.));
#1741=CARTESIAN_POINT('Origin',(50.,250.,50.));
#1742=CARTESIAN_POINT('Origin',(50.,250.,20.));
#1743=CARTESIAN_POINT('Origin',(40.,250.,20.));
#1744=CARTESIAN_POINT('',(60.,250.,20.));
#1745=CARTESIAN_POINT('Origin',(50.,250.,20.));
#1746=CARTESIAN_POINT('Origin',(50.,250.,58.5435607626104));
#1747=CARTESIAN_POINT('',(40.,250.,97.0871215252208));
#1748=CARTESIAN_POINT('',(60.,250.,97.0871215252208));
#1749=CARTESIAN_POINT('Origin',(50.,250.,97.0871215252208));
#1750=CARTESIAN_POINT('Origin',(50.,250.,97.0871215252208));
#1751=CARTESIAN_POINT('',(60.,250.,58.5435607626104));
#1752=CARTESIAN_POINT('Origin',(50.,250.,120.));
#1753=CARTESIAN_POINT('',(50.,250.,95.));
#1754=CARTESIAN_POINT('Origin',(50.,250.,120.));
#1755=CARTESIAN_POINT('Origin',(260.,190.,20.));
#1756=CARTESIAN_POINT('',(260.,120.,20.));
#1757=CARTESIAN_POINT('',(260.,190.,20.));
#1758=CARTESIAN_POINT('',(260.,120.,20.));
#1759=CARTESIAN_POINT('',(260.,120.,25.));
#1760=CARTESIAN_POINT('',(260.,120.,20.));
#1761=CARTESIAN_POINT('',(260.,190.,25.));
#1762=CARTESIAN_POINT('',(260.,120.,25.));
#1763=CARTESIAN_POINT('',(260.,190.,20.));
#1764=CARTESIAN_POINT('Origin',(330.,190.,20.));
#1765=CARTESIAN_POINT('',(330.,190.,20.));
#1766=CARTESIAN_POINT('',(260.,190.,20.));
#1767=CARTESIAN_POINT('',(330.,190.,25.));
#1768=CARTESIAN_POINT('',(260.,190.,25.));
#1769=CARTESIAN_POINT('',(330.,190.,20.));
#1770=CARTESIAN_POINT('Origin',(330.,120.,20.));
#1771=CARTESIAN_POINT('',(330.,120.,20.));
#1772=CARTESIAN_POINT('',(330.,190.,20.));
#1773=CARTESIAN_POINT('',(330.,120.,25.));
#1774=CARTESIAN_POINT('',(330.,190.,25.));
#1775=CARTESIAN_POINT('',(330.,120.,20.));
#1776=CARTESIAN_POINT('Origin',(260.,120.,20.));
#1777=CARTESIAN_POINT('',(330.,120.,20.));
#1778=CARTESIAN_POINT('',(330.,120.,25.));
#1779=CARTESIAN_POINT('Origin',(295.,155.,25.));
#1780=CARTESIAN_POINT('Origin',(295.,155.,20.));
#1781=CARTESIAN_POINT('Origin',(210.,390.,20.));
#1782=CARTESIAN_POINT('',(210.,320.,20.));
#1783=CARTESIAN_POINT('',(210.,390.,20.));
#1784=CARTESIAN_POINT('',(210.,320.,20.));
#1785=CARTESIAN_POINT('',(210.,320.,25.));
#1786=CARTESIAN_POINT('',(210.,320.,20.));
#1787=CARTESIAN_POINT('',(210.,390.,25.));
#1788=CARTESIAN_POINT('',(210.,320.,25.));
#1789=CARTESIAN_POINT('',(210.,390.,20.));
#1790=CARTESIAN_POINT('Origin',(280.,390.,20.));
#1791=CARTESIAN_POINT('',(280.,390.,20.));
#1792=CARTESIAN_POINT('',(210.,390.,20.));
#1793=CARTESIAN_POINT('',(280.,390.,25.));
#1794=CARTESIAN_POINT('',(210.,390.,25.));
#1795=CARTESIAN_POINT('',(280.,390.,20.));
#1796=CARTESIAN_POINT('Origin',(280.,320.,20.));
#1797=CARTESIAN_POINT('',(280.,320.,20.));
#1798=CARTESIAN_POINT('',(280.,390.,20.));
#1799=CARTESIAN_POINT('',(280.,320.,25.));
#1800=CARTESIAN_POINT('',(280.,390.,25.));
#1801=CARTESIAN_POINT('',(280.,320.,20.));
#1802=CARTESIAN_POINT('Origin',(210.,320.,20.));
#1803=CARTESIAN_POINT('',(280.,320.,20.));
#1804=CARTESIAN_POINT('',(280.,320.,25.));
#1805=CARTESIAN_POINT('Origin',(245.,355.,25.));
#1806=CARTESIAN_POINT('Origin',(245.,355.,20.));
#1807=CARTESIAN_POINT('Origin',(289.00000564754,149.000001624227,25.));
#1808=CARTESIAN_POINT('',(292.50000564754,149.000001624227,30.));
#1809=CARTESIAN_POINT('Origin',(289.00000564754,149.000001624227,30.));
#1810=CARTESIAN_POINT('',(292.50000564754,149.000001624227,25.));
#1811=CARTESIAN_POINT('',(292.50000564754,149.000001624227,25.));
#1812=CARTESIAN_POINT('Origin',(289.00000564754,149.000001624227,25.));
#1813=CARTESIAN_POINT('Origin',(286.129539742217,143.990634516526,25.));
#1814=CARTESIAN_POINT('',(286.129539742217,143.990634516526,25.));
#1815=CARTESIAN_POINT('',(291.90301186703,144.00942167567,25.));
#1816=CARTESIAN_POINT('',(286.129539742217,143.990634516526,25.));
#1817=CARTESIAN_POINT('',(291.90301186703,144.00942167567,30.));
#1818=CARTESIAN_POINT('',(291.90301186703,144.00942167567,25.));
#1819=CARTESIAN_POINT('',(286.129539742217,143.990634516526,30.));
#1820=CARTESIAN_POINT('',(286.129539742217,143.990634516526,30.));
#1821=CARTESIAN_POINT('',(286.129539742217,143.990634516526,25.));
#1822=CARTESIAN_POINT('Origin',(283.226533522728,148.981214465083,25.));
#1823=CARTESIAN_POINT('',(283.226533522728,148.981214465083,25.));
#1824=CARTESIAN_POINT('',(283.226533522728,148.981214465083,25.));
#1825=CARTESIAN_POINT('',(283.226533522728,148.981214465083,30.));
#1826=CARTESIAN_POINT('',(283.226533522728,148.981214465083,30.));
#1827=CARTESIAN_POINT('',(283.226533522728,148.981214465083,25.));
#1828=CARTESIAN_POINT('Origin',(286.09699942805,153.990581572783,25.));
#1829=CARTESIAN_POINT('',(286.09699942805,153.990581572783,25.));
#1830=CARTESIAN_POINT('',(286.09699942805,153.990581572783,25.));
#1831=CARTESIAN_POINT('',(286.09699942805,153.990581572783,30.));
#1832=CARTESIAN_POINT('',(286.09699942805,153.990581572783,30.));
#1833=CARTESIAN_POINT('',(286.09699942805,153.990581572783,25.));
#1834=CARTESIAN_POINT('Origin',(291.870471552863,154.009368731927,25.));
#1835=CARTESIAN_POINT('',(291.870471552863,154.009368731927,25.));
#1836=CARTESIAN_POINT('',(291.870471552863,154.009368731927,25.));
#1837=CARTESIAN_POINT('',(291.870471552863,154.009368731927,30.));
#1838=CARTESIAN_POINT('',(291.870471552863,154.009368731927,30.));
#1839=CARTESIAN_POINT('',(291.870471552863,154.009368731927,25.));
#1840=CARTESIAN_POINT('Origin',(294.773477772352,149.01878878337,25.));
#1841=CARTESIAN_POINT('',(294.773477772352,149.01878878337,25.));
#1842=CARTESIAN_POINT('',(294.773477772352,149.01878878337,25.));
#1843=CARTESIAN_POINT('',(294.773477772352,149.01878878337,30.));
#1844=CARTESIAN_POINT('',(294.773477772352,149.01878878337,30.));
#1845=CARTESIAN_POINT('',(294.773477772352,149.01878878337,25.));
#1846=CARTESIAN_POINT('Origin',(291.90301186703,144.00942167567,25.));
#1847=CARTESIAN_POINT('',(291.90301186703,144.00942167567,25.));
#1848=CARTESIAN_POINT('',(291.90301186703,144.00942167567,30.));
#1849=CARTESIAN_POINT('Origin',(289.00000564754,149.000001624227,30.));
#1850=CARTESIAN_POINT('Origin',(289.00000564754,149.000001624227,25.));
#1851=CARTESIAN_POINT('Origin',(247.240414624949,353.978767660052,35.));
#1852=CARTESIAN_POINT('',(250.240414624949,353.978767660052,50.));
#1853=CARTESIAN_POINT('Origin',(247.240414624949,353.978767660052,50.));
#1854=CARTESIAN_POINT('',(250.240414624949,353.978767660052,35.));
#1855=CARTESIAN_POINT('',(250.240414624949,353.978767660052,35.));
#1856=CARTESIAN_POINT('Origin',(247.240414624949,353.978767660052,35.));
#1857=CARTESIAN_POINT('Origin',(247.240414624949,353.978767660052,50.));
#1858=CARTESIAN_POINT('Origin',(242.240414624949,358.978767660052,25.));
#1859=CARTESIAN_POINT('',(242.240414624949,348.978767660052,25.));
#1860=CARTESIAN_POINT('',(242.240414624949,358.978767660052,25.));
#1861=CARTESIAN_POINT('',(242.240414624949,348.978767660052,25.));
#1862=CARTESIAN_POINT('',(242.240414624949,348.978767660052,35.));
#1863=CARTESIAN_POINT('',(242.240414624949,348.978767660052,25.));
#1864=CARTESIAN_POINT('',(242.240414624949,358.978767660052,35.));
#1865=CARTESIAN_POINT('',(242.240414624949,348.978767660052,35.));
#1866=CARTESIAN_POINT('',(242.240414624949,358.978767660052,25.));
#1867=CARTESIAN_POINT('Origin',(252.240414624949,358.978767660052,25.));
#1868=CARTESIAN_POINT('',(252.240414624949,358.978767660052,25.));
#1869=CARTESIAN_POINT('',(242.240414624949,358.978767660052,25.));
#1870=CARTESIAN_POINT('',(252.240414624949,358.978767660052,35.));
#1871=CARTESIAN_POINT('',(242.240414624949,358.978767660052,35.));
#1872=CARTESIAN_POINT('',(252.240414624949,358.978767660052,25.));
#1873=CARTESIAN_POINT('Origin',(252.240414624949,348.978767660052,25.));
#1874=CARTESIAN_POINT('',(252.240414624949,348.978767660052,25.));
#1875=CARTESIAN_POINT('',(252.240414624949,358.978767660052,25.));
#1876=CARTESIAN_POINT('',(252.240414624949,348.978767660052,35.));
#1877=CARTESIAN_POINT('',(252.240414624949,358.978767660052,35.));
#1878=CARTESIAN_POINT('',(252.240414624949,348.978767660052,25.));
#1879=CARTESIAN_POINT('Origin',(242.240414624949,348.978767660052,25.));
#1880=CARTESIAN_POINT('',(252.240414624949,348.978767660052,25.));
#1881=CARTESIAN_POINT('',(252.240414624949,348.978767660052,35.));
#1882=CARTESIAN_POINT('Origin',(247.240414624949,353.978767660052,35.));
#1883=CARTESIAN_POINT('Origin',(247.240414624949,353.978767660052,25.));
#1884=CARTESIAN_POINT('Origin',(330.052609329627,250.000003576279,175.900875886229));
#1885=CARTESIAN_POINT('',(330.052609329627,243.000003576279,178.400875886229));
#1886=CARTESIAN_POINT('',(330.052609329627,243.000003576279,173.400875886229));
#1887=CARTESIAN_POINT('',(330.052609329627,243.000003576279,178.400875886229));
#1888=CARTESIAN_POINT('',(330.052609329627,257.000003576279,173.400875886229));
#1889=CARTESIAN_POINT('',(330.052609329627,243.000003576279,173.400875886229));
#1890=CARTESIAN_POINT('',(330.052609329627,257.000003576279,178.400875886229));
#1891=CARTESIAN_POINT('',(330.052609329627,257.000003576279,173.400875886229));
#1892=CARTESIAN_POINT('',(330.052609329627,257.000003576279,178.400875886229));
#1893=CARTESIAN_POINT('Origin',(322.552609329627,250.000003576279,173.400875886229));
#1894=CARTESIAN_POINT('',(317.552609329627,250.000003576279,166.400875886229));
#1895=CARTESIAN_POINT('Origin',(322.552609329627,250.000003576279,166.400875886229));
#1896=CARTESIAN_POINT('',(317.552609329627,250.000003576279,173.400875886229));
#1897=CARTESIAN_POINT('',(317.552609329627,250.000003576279,173.400875886229));
#1898=CARTESIAN_POINT('Origin',(322.552609329627,250.000003576279,173.400875886229));
#1899=CARTESIAN_POINT('Origin',(322.552609329627,250.000003576279,166.400875886229));
#1900=CARTESIAN_POINT('Origin',(305.052609329627,257.000003576279,178.400875886229));
#1901=CARTESIAN_POINT('',(305.052609329627,257.000003576279,178.400875886229));
#1902=CARTESIAN_POINT('',(305.052609329627,243.000003576279,178.400875886229));
#1903=CARTESIAN_POINT('',(305.052609329627,257.000003576279,178.400875886229));
#1904=CARTESIAN_POINT('',(305.052609329627,243.000003576279,178.400875886229));
#1905=CARTESIAN_POINT('',(305.052609329627,257.000003576279,178.400875886229));
#1906=CARTESIAN_POINT('Origin',(305.052609329627,257.000003576279,173.400875886229));
#1907=CARTESIAN_POINT('',(305.052609329627,257.000003576279,173.400875886229));
#1908=CARTESIAN_POINT('',(305.052609329627,257.000003576279,173.400875886229));
#1909=CARTESIAN_POINT('',(305.052609329627,257.000003576279,173.400875886229));
#1910=CARTESIAN_POINT('Origin',(305.052609329627,243.000003576279,173.400875886229));
#1911=CARTESIAN_POINT('',(305.052609329627,243.000003576279,173.400875886229));
#1912=CARTESIAN_POINT('',(305.052609329627,243.000003576279,173.400875886229));
#1913=CARTESIAN_POINT('',(305.052609329627,243.000003576279,173.400875886229));
#1914=CARTESIAN_POINT('Origin',(305.052609329627,243.000003576279,178.400875886229));
#1915=CARTESIAN_POINT('',(305.052609329627,243.000003576279,178.400875886229));
#1916=CARTESIAN_POINT('Origin',(305.052609329627,250.000003576279,175.900875886229));
#1917=CARTESIAN_POINT('Origin',(200.,250.,20.));
#1918=CARTESIAN_POINT('',(55.1943248462122,250.,20.));
#1919=CARTESIAN_POINT('Origin',(50.,250.,20.));
#1920=CARTESIAN_POINT('Origin',(305.052609329627,260.,168.400875886231));
#1921=CARTESIAN_POINT('',(285.052609329627,260.,168.400875886231));
#1922=CARTESIAN_POINT('',(305.052609329627,260.,168.400875886231));
#1923=CARTESIAN_POINT('',(290.052609329627,260.,168.400875886231));
#1924=CARTESIAN_POINT('',(285.052609329627,260.,153.400875886231));
#1925=CARTESIAN_POINT('',(285.052609329627,260.,168.400875886231));
#1926=CARTESIAN_POINT('',(305.052609329627,260.,153.400875886231));
#1927=CARTESIAN_POINT('',(285.052609329627,260.,153.400875886231));
#1928=CARTESIAN_POINT('',(305.052609329627,260.,168.400875886231));
#1929=CARTESIAN_POINT('Origin',(285.052609329627,265.,168.400875886231));
#1930=CARTESIAN_POINT('',(305.052609329627,265.,168.400875886231));
#1931=CARTESIAN_POINT('',(285.052609329627,265.,168.400875886231));
#1932=CARTESIAN_POINT('',(280.052609329627,265.,168.400875886231));
#1933=CARTESIAN_POINT('',(305.052609329627,265.,153.400875886231));
#1934=CARTESIAN_POINT('',(305.052609329627,265.,168.400875886231));
#1935=CARTESIAN_POINT('',(285.052609329627,265.,153.400875886231));
#1936=CARTESIAN_POINT('',(285.052609329627,265.,153.400875886231));
#1937=CARTESIAN_POINT('',(285.052609329627,265.,168.400875886231));
#1938=CARTESIAN_POINT('Origin',(295.052609329627,262.5,153.400875886231));
#1939=CARTESIAN_POINT('',(305.052609329627,265.,153.400875886231));
#1940=CARTESIAN_POINT('',(285.052609329627,265.,153.400875886231));
#1941=CARTESIAN_POINT('Origin',(275.052609329627,250.,168.400875886231));
#1942=CARTESIAN_POINT('',(305.052609329627,240.000003576279,168.400875886231));
#1943=CARTESIAN_POINT('',(305.052609329627,250.,168.400875886231));
#1944=CARTESIAN_POINT('',(285.052609329627,240.000003576279,168.400875886231));
#1945=CARTESIAN_POINT('',(280.052609329627,240.000003576279,168.400875886231));
#1946=CARTESIAN_POINT('',(285.052609329627,250.,168.400875886231));
#1947=CARTESIAN_POINT('Origin',(275.052609329627,250.,168.400875886231));
#1948=CARTESIAN_POINT('',(285.052609329627,270.,168.400875886231));
#1949=CARTESIAN_POINT('',(285.052609329627,250.,168.400875886231));
#1950=CARTESIAN_POINT('',(305.052609329627,270.,168.400875886231));
#1951=CARTESIAN_POINT('',(315.052609329627,270.,168.400875886231));
#1952=CARTESIAN_POINT('',(305.052609329627,250.,168.400875886231));
#1953=CARTESIAN_POINT('Origin',(305.052609329627,235.,168.400875886231));
#1954=CARTESIAN_POINT('',(285.052609329627,235.,168.400875886231));
#1955=CARTESIAN_POINT('',(305.052609329627,235.,168.400875886231));
#1956=CARTESIAN_POINT('',(290.052609329627,235.,168.400875886231));
#1957=CARTESIAN_POINT('',(285.052609329627,235.,153.400875886231));
#1958=CARTESIAN_POINT('',(285.052609329627,235.,168.400875886231));
#1959=CARTESIAN_POINT('',(305.052609329627,235.,153.400875886231));
#1960=CARTESIAN_POINT('',(285.052609329627,235.,153.400875886231));
#1961=CARTESIAN_POINT('',(305.052609329627,235.,168.400875886231));
#1962=CARTESIAN_POINT('Origin',(285.052609329627,240.000003576279,168.400875886231));
#1963=CARTESIAN_POINT('',(305.052609329627,240.000003576279,153.400875886231));
#1964=CARTESIAN_POINT('',(305.052609329627,240.000003576279,168.400875886231));
#1965=CARTESIAN_POINT('',(285.052609329627,240.000003576279,153.400875886231));
#1966=CARTESIAN_POINT('',(285.052609329627,240.000003576279,153.400875886231));
#1967=CARTESIAN_POINT('',(285.052609329627,240.000003576279,168.400875886231));
#1968=CARTESIAN_POINT('Origin',(295.052609329627,237.500001788139,153.400875886231));
#1969=CARTESIAN_POINT('',(285.052609329627,235.,153.400875886231));
#1970=CARTESIAN_POINT('',(305.052609329627,240.000003576279,153.400875886231));
#1971=CARTESIAN_POINT('Origin',(275.052609329627,250.,168.400875886231));
#1972=CARTESIAN_POINT('',(305.052609329627,230.,168.400875886231));
#1973=CARTESIAN_POINT('',(305.052609329627,250.,168.400875886231));
#1974=CARTESIAN_POINT('',(285.052609329627,230.,168.400875886231));
#1975=CARTESIAN_POINT('',(315.052609329627,230.,168.400875886231));
#1976=CARTESIAN_POINT('',(285.052609329627,250.,168.400875886231));
#1977=CARTESIAN_POINT('Origin',(285.052609329627,250.,188.400875886231));
#1978=CARTESIAN_POINT('',(285.052609329627,230.,188.400875886231));
#1979=CARTESIAN_POINT('',(285.052609329627,230.,183.400875886231));
#1980=CARTESIAN_POINT('',(285.052609329627,250.,188.400875886231));
#1981=CARTESIAN_POINT('',(285.052609329627,250.,188.400875886231));
#1982=CARTESIAN_POINT('',(285.052609329627,270.,188.400875886231));
#1983=CARTESIAN_POINT('',(285.052609329627,250.,188.400875886231));
#1984=CARTESIAN_POINT('',(285.052609329627,270.,183.400875886231));
#1985=CARTESIAN_POINT('Origin',(295.052609329627,230.,178.400875886231));
#1986=CARTESIAN_POINT('',(305.052609329627,230.,188.400875886231));
#1987=CARTESIAN_POINT('',(305.052609329627,230.,173.400875886231));
#1988=CARTESIAN_POINT('',(295.052609329627,230.,188.400875886231));
#1989=CARTESIAN_POINT('Origin',(315.052609329627,250.,188.400875886231));
#1990=CARTESIAN_POINT('',(305.052609329627,250.,188.400875886231));
#1991=CARTESIAN_POINT('',(305.052609329627,250.,188.400875886231));
#1992=CARTESIAN_POINT('Origin',(295.052609329627,250.,188.400875886231));
#1993=CARTESIAN_POINT('Origin',(305.052609329627,250.,168.400875886231));
#1994=CARTESIAN_POINT('',(305.052609329627,270.,188.400875886231));
#1995=CARTESIAN_POINT('',(305.052609329627,270.,173.400875886231));
#1996=CARTESIAN_POINT('',(305.052609329627,250.,188.400875886231));
#1997=CARTESIAN_POINT('Origin',(295.052609329627,270.,178.400875886231));
#1998=CARTESIAN_POINT('',(295.052609329627,270.,188.400875886231));
#1999=CARTESIAN_POINT('Origin',(50.,250.,57.772786607407));
#2000=CARTESIAN_POINT('',(44.8056751537879,250.,95.545573214814));
#2001=CARTESIAN_POINT('',(55.1943248462122,250.,95.545573214814));
#2002=CARTESIAN_POINT('Origin',(50.,250.,95.545573214814));
#2003=CARTESIAN_POINT('Origin',(50.,250.,95.545573214814));
#2004=CARTESIAN_POINT('',(55.1943248462122,250.,57.772786607407));
#2005=CARTESIAN_POINT('Origin',(58.6824088833465,250.,169.24038765061));
#2006=CARTESIAN_POINT('',(73.2341157045658,250.,194.179513158762));
#2007=CARTESIAN_POINT('Origin',(63.3860381744437,250.,195.915994935432));
#2008=CARTESIAN_POINT('',(63.8268571223713,250.,140.82829858912));
#2009=CARTESIAN_POINT('',(68.5304864134685,250.,167.503905873941));
#2010=CARTESIAN_POINT('',(44.1307020621271,250.,144.301262142458));
#2011=CARTESIAN_POINT('Origin',(53.9787795922492,250.,142.564780365789));
#2012=CARTESIAN_POINT('Origin',(53.9787795922492,250.,142.564780365789));
#2013=CARTESIAN_POINT('Origin',(50.,250.,120.));
#2014=CARTESIAN_POINT('Origin',(50.,250.,120.));
#2015=CARTESIAN_POINT('Origin',(96.0436395842453,250.,259.43837751567));
#2016=CARTESIAN_POINT('',(119.771694662579,250.,275.891084123449));
#2017=CARTESIAN_POINT('Origin',(111.580174219689,250.,281.626848486959));
#2018=CARTESIAN_POINT('',(88.6986253916914,250.,231.514142180871));
#2019=CARTESIAN_POINT('',(104.235160027135,250.,253.70261315216));
#2020=CARTESIAN_POINT('Origin',(80.5071049488014,250.,237.249906544381));
#2021=CARTESIAN_POINT('Origin',(67.364817766693,250.,218.480775301221));
#2022=CARTESIAN_POINT('',(67.364817766693,275.,218.480775301221));
#2023=CARTESIAN_POINT('',(67.364817766693,225.,218.480775301221));
#2024=CARTESIAN_POINT('Origin',(67.364817766693,250.,218.480775301221));
#2025=CARTESIAN_POINT('Origin',(124.722461401798,250.,300.39597973012));
#2026=CARTESIAN_POINT('',(124.722461401798,275.,300.39597973012));
#2027=CARTESIAN_POINT('',(124.722461401798,225.,300.39597973012));
#2028=CARTESIAN_POINT('Origin',(124.722461401798,250.,300.39597973012));
#2029=CARTESIAN_POINT('',(148.41970688387,250.,292.431021691159));
#2030=CARTESIAN_POINT('Origin',(147.548149456393,250.,302.392968672076));
#2031=CARTESIAN_POINT('Origin',(174.532196306385,250.,304.753766867503));
#2032=CARTESIAN_POINT('',(202.387800583853,250.,297.152618082012));
#2033=CARTESIAN_POINT('Origin',(201.516243156377,250.,307.11456506293));
#2034=CARTESIAN_POINT('',(175.403753733862,250.,294.791819886586));
#2035=CARTESIAN_POINT('Origin',(259.6972702703,250.,273.756214945559));
#2036=CARTESIAN_POINT('',(271.779689771742,250.,247.531659820385));
#2037=CARTESIAN_POINT('Origin',(278.850757583607,250.,254.602727632251));
#2038=CARTESIAN_POINT('',(233.472715145126,250.,285.838634447001));
#2039=CARTESIAN_POINT('',(252.626202458434,250.,266.685147133693));
#2040=CARTESIAN_POINT('Origin',(240.543782956992,250.,292.909702258866));
#2041=CARTESIAN_POINT('Origin',(224.341931210972,250.,309.111554004886));
#2042=CARTESIAN_POINT('',(224.341931210972,275.,309.111554004886));
#2043=CARTESIAN_POINT('',(224.341931210972,225.,309.111554004886));
#2044=CARTESIAN_POINT('Origin',(224.341931210972,250.,309.111554004886));
#2045=CARTESIAN_POINT('Origin',(295.052609329627,250.,201.944436648842));
#2046=CARTESIAN_POINT('Origin',(295.052609329627,250.,188.400875886231));
#2047=CARTESIAN_POINT('',(285.052609329627,250.,215.487997411452));
#2048=CARTESIAN_POINT('',(285.052609329627,250.,201.944436648842));
#2049=CARTESIAN_POINT('Origin',(295.052609329627,250.,215.487997411452));
#2050=CARTESIAN_POINT('Origin',(315.052609329627,250.,188.400875886231));
#2051=CARTESIAN_POINT('Origin',(295.052609329627,250.,238.400875886231));
#2052=CARTESIAN_POINT('',(295.052609329627,275.,238.400875886231));
#2053=CARTESIAN_POINT('',(295.052609329627,225.,238.400875886231));
#2054=CARTESIAN_POINT('Origin',(295.052609329627,250.,238.400875886231));
#2055=UNCERTAINTY_MEASURE_WITH_UNIT(LENGTH_MEASURE(0.01),#2059,
'DISTANCE_ACCURACY_VALUE',
'Maximum model space distance between geometric entities at asserted c
onnectivities');
#2056=UNCERTAINTY_MEASURE_WITH_UNIT(LENGTH_MEASURE(0.01),#2059,
'DISTANCE_ACCURACY_VALUE',
'Maximum model space distance between geometric entities at asserted c
onnectivities');
#2057=(
GEOMETRIC_REPRESENTATION_CONTEXT(3)
GLOBAL_UNCERTAINTY_ASSIGNED_CONTEXT((#2055))
GLOBAL_UNIT_ASSIGNED_CONTEXT((#2059,#2061,#2062))
REPRESENTATION_CONTEXT('','3D')
);
#2058=(
GEOMETRIC_REPRESENTATION_CONTEXT(3)
GLOBAL_UNCERTAINTY_ASSIGNED_CONTEXT((#2056))
GLOBAL_UNIT_ASSIGNED_CONTEXT((#2059,#2061,#2062))
REPRESENTATION_CONTEXT('','3D')
);
#2059=(
LENGTH_UNIT()
NAMED_UNIT(*)
SI_UNIT(.MILLI.,.METRE.)
);
#2060=(
LENGTH_UNIT()
NAMED_UNIT(*)
SI_UNIT($,.METRE.)
);
#2061=(
NAMED_UNIT(*)
PLANE_ANGLE_UNIT()
SI_UNIT($,.RADIAN.)
);
#2062=(
NAMED_UNIT(*)
SI_UNIT($,.STERADIAN.)
SOLID_ANGLE_UNIT()
);
#2063=SHAPE_DEFINITION_REPRESENTATION(#2064,#2065);
#2064=PRODUCT_DEFINITION_SHAPE('',$,#2067);
#2065=SHAPE_REPRESENTATION('',(#1254),#2057);
#2066=PRODUCT_DEFINITION_CONTEXT('part definition',#2071,'design');
#2067=PRODUCT_DEFINITION('Setup BA','Setup BA v3',#2068,#2066);
#2068=PRODUCT_DEFINITION_FORMATION('',$,#2073);
#2069=PRODUCT_RELATED_PRODUCT_CATEGORY('Setup BA v3','Setup BA v3',(#2073));
#2070=APPLICATION_PROTOCOL_DEFINITION('international standard',
'automotive_design',2009,#2071);
#2071=APPLICATION_CONTEXT(
'Core Data for Automotive Mechanical Design Process');
#2072=PRODUCT_CONTEXT('part definition',#2071,'mechanical');
#2073=PRODUCT('Setup BA','Setup BA v3',$,(#2072));
#2074=PRESENTATION_STYLE_ASSIGNMENT((#2079));
#2075=PRESENTATION_STYLE_ASSIGNMENT((#2080));
#2076=PRESENTATION_STYLE_ASSIGNMENT((#2081));
#2077=PRESENTATION_STYLE_ASSIGNMENT((#2082));
#2078=PRESENTATION_STYLE_ASSIGNMENT((#2083));
#2079=SURFACE_STYLE_USAGE(.BOTH.,#2084);
#2080=SURFACE_STYLE_USAGE(.BOTH.,#2085);
#2081=SURFACE_STYLE_USAGE(.BOTH.,#2086);
#2082=SURFACE_STYLE_USAGE(.BOTH.,#2087);
#2083=SURFACE_STYLE_USAGE(.BOTH.,#2088);
#2084=SURFACE_SIDE_STYLE('',(#2089));
#2085=SURFACE_SIDE_STYLE('',(#2090));
#2086=SURFACE_SIDE_STYLE('',(#2091));
#2087=SURFACE_SIDE_STYLE('',(#2092));
#2088=SURFACE_SIDE_STYLE('',(#2093));
#2089=SURFACE_STYLE_FILL_AREA(#2094);
#2090=SURFACE_STYLE_FILL_AREA(#2095);
#2091=SURFACE_STYLE_FILL_AREA(#2096);
#2092=SURFACE_STYLE_FILL_AREA(#2097);
#2093=SURFACE_STYLE_FILL_AREA(#2098);
#2094=FILL_AREA_STYLE('Steel - Satin',(#2099));
#2095=FILL_AREA_STYLE('Powder Coat - Rough (Grey)',(#2100));
#2096=FILL_AREA_STYLE('Paint - Metallic (Dark Grey)',(#2101));
#2097=FILL_AREA_STYLE('Paper (White)',(#2102));
#2098=FILL_AREA_STYLE('Plastic - Matte (Black)',(#2103));
#2099=FILL_AREA_STYLE_COLOUR('Steel - Satin',#2104);
#2100=FILL_AREA_STYLE_COLOUR('Powder Coat - Rough (Grey)',#2105);
#2101=FILL_AREA_STYLE_COLOUR('Paint - Metallic (Dark Grey)',#2106);
#2102=FILL_AREA_STYLE_COLOUR('Paper (White)',#2107);
#2103=FILL_AREA_STYLE_COLOUR('Plastic - Matte (Black)',#2108);
#2104=COLOUR_RGB('Steel - Satin',0.627450980392157,0.627450980392157,0.627450980392157);
#2105=COLOUR_RGB('Powder Coat - Rough (Grey)',0.701960784313725,0.701960784313725,
0.701960784313725);
#2106=COLOUR_RGB('Paint - Metallic (Dark Grey)',0.349019607843137,0.349019607843137,
0.349019607843137);
#2107=COLOUR_RGB('Paper (White)',0.,0.,0.);
#2108=COLOUR_RGB('Plastic - Matte (Black)',0.0980392156862745,0.0980392156862745,
0.0980392156862745);
ENDSEC;
END-ISO-10303-21;
